G04 #@! TF.GenerationSoftware,KiCad,Pcbnew,(5.0.0)*
G04 #@! TF.CreationDate,2018-11-11T20:44:08+01:00*
G04 #@! TF.ProjectId,MosfetSchaltung_v2,4D6F73666574536368616C74756E675F,rev?*
G04 #@! TF.SameCoordinates,Original*
G04 #@! TF.FileFunction,Legend,Top*
G04 #@! TF.FilePolarity,Positive*
%FSLAX46Y46*%
G04 Gerber Fmt 4.6, Leading zero omitted, Abs format (unit mm)*
G04 Created by KiCad (PCBNEW (5.0.0)) date 11/11/18 20:44:08*
%MOMM*%
%LPD*%
G01*
G04 APERTURE LIST*
%ADD10C,0.200000*%
%ADD11C,0.120000*%
%ADD12C,0.100000*%
%ADD13C,0.150000*%
G04 APERTURE END LIST*
D10*
X129794000Y-99568000D02*
X129794000Y-110744000D01*
X145796000Y-99568000D02*
X129794000Y-99568000D01*
X145796000Y-110744000D02*
X145796000Y-99568000D01*
X129921000Y-110744000D02*
X145796000Y-110744000D01*
X145796000Y-87503000D02*
X129794000Y-87503000D01*
X145796000Y-98679000D02*
X145796000Y-87503000D01*
X129794000Y-87503000D02*
X129794000Y-98679000D01*
X129921000Y-98679000D02*
X145796000Y-98679000D01*
X145796000Y-75438000D02*
X129794000Y-75438000D01*
X145796000Y-86614000D02*
X145796000Y-75438000D01*
X129921000Y-86614000D02*
X145796000Y-86614000D01*
X129794000Y-75438000D02*
X129794000Y-86614000D01*
D11*
G04 #@! TO.C,J6*
X96691000Y-83495000D02*
X97941000Y-83495000D01*
X96691000Y-82245000D02*
X96691000Y-83495000D01*
X102191000Y-76345000D02*
X102191000Y-79395000D01*
X99241000Y-76345000D02*
X102191000Y-76345000D01*
X99241000Y-75595000D02*
X99241000Y-76345000D01*
X102191000Y-82445000D02*
X102191000Y-79395000D01*
X99241000Y-82445000D02*
X102191000Y-82445000D01*
X99241000Y-83195000D02*
X99241000Y-82445000D01*
X96991000Y-75595000D02*
X96991000Y-77395000D01*
X97741000Y-75595000D02*
X96991000Y-75595000D01*
X97741000Y-77395000D02*
X97741000Y-75595000D01*
X96991000Y-77395000D02*
X97741000Y-77395000D01*
X96991000Y-81395000D02*
X96991000Y-83195000D01*
X97741000Y-81395000D02*
X96991000Y-81395000D01*
X97741000Y-83195000D02*
X97741000Y-81395000D01*
X96991000Y-83195000D02*
X97741000Y-83195000D01*
X96991000Y-78895000D02*
X96991000Y-79895000D01*
X97741000Y-78895000D02*
X96991000Y-78895000D01*
X97741000Y-79895000D02*
X97741000Y-78895000D01*
X96991000Y-79895000D02*
X97741000Y-79895000D01*
X96981000Y-75585000D02*
X96981000Y-83205000D01*
X102951000Y-75585000D02*
X96981000Y-75585000D01*
X102951000Y-83205000D02*
X102951000Y-75585000D01*
X96981000Y-83205000D02*
X102951000Y-83205000D01*
G04 #@! TO.C,D1*
X100316000Y-104000000D02*
X100316000Y-104200000D01*
X100316000Y-104200000D02*
X106116000Y-104200000D01*
X100316000Y-99200000D02*
X100316000Y-99000000D01*
X100316000Y-99000000D02*
X104916000Y-99000000D01*
X104916000Y-99000000D02*
X104916000Y-99200000D01*
X100316000Y-103100000D02*
X100316000Y-100100000D01*
X104916000Y-100100000D02*
X104916000Y-103100000D01*
G04 #@! TO.C,U4*
X118705000Y-80804000D02*
X128945000Y-80804000D01*
X118705000Y-85445000D02*
X128945000Y-85445000D01*
X118705000Y-80804000D02*
X118705000Y-85445000D01*
X128945000Y-80804000D02*
X128945000Y-85445000D01*
X118705000Y-82314000D02*
X128945000Y-82314000D01*
X121975000Y-80804000D02*
X121975000Y-82314000D01*
X125676000Y-80804000D02*
X125676000Y-82314000D01*
G04 #@! TO.C,SW1*
X160976000Y-105410000D02*
X163636000Y-105410000D01*
X160976000Y-105410000D02*
X160976000Y-110550000D01*
X160976000Y-110550000D02*
X163636000Y-110550000D01*
X163636000Y-105410000D02*
X163636000Y-110550000D01*
X163636000Y-102810000D02*
X163636000Y-104140000D01*
X162306000Y-102810000D02*
X163636000Y-102810000D01*
G04 #@! TO.C,Q3*
X139646000Y-106077000D02*
X139646000Y-107587000D01*
X135945000Y-106077000D02*
X135945000Y-107587000D01*
X132675000Y-107587000D02*
X142915000Y-107587000D01*
X142915000Y-106077000D02*
X142915000Y-110718000D01*
X132675000Y-106077000D02*
X132675000Y-110718000D01*
X132675000Y-110718000D02*
X142915000Y-110718000D01*
X132675000Y-106077000D02*
X142915000Y-106077000D01*
G04 #@! TO.C,Q2*
X132675000Y-94012000D02*
X142915000Y-94012000D01*
X132675000Y-98653000D02*
X142915000Y-98653000D01*
X132675000Y-94012000D02*
X132675000Y-98653000D01*
X142915000Y-94012000D02*
X142915000Y-98653000D01*
X132675000Y-95522000D02*
X142915000Y-95522000D01*
X135945000Y-94012000D02*
X135945000Y-95522000D01*
X139646000Y-94012000D02*
X139646000Y-95522000D01*
G04 #@! TO.C,C1*
X120745000Y-98135000D02*
X120745000Y-96739000D01*
X120745000Y-101381000D02*
X120745000Y-99985000D01*
X126985000Y-98135000D02*
X126985000Y-96739000D01*
X126985000Y-101381000D02*
X126985000Y-99985000D01*
X126985000Y-96739000D02*
X120745000Y-96739000D01*
X126985000Y-101381000D02*
X120745000Y-101381000D01*
G04 #@! TO.C,C3*
X117998000Y-75784000D02*
X124238000Y-75784000D01*
X117998000Y-80426000D02*
X124238000Y-80426000D01*
X117998000Y-75784000D02*
X117998000Y-77180000D01*
X117998000Y-79030000D02*
X117998000Y-80426000D01*
X124238000Y-75784000D02*
X124238000Y-77180000D01*
X124238000Y-79030000D02*
X124238000Y-80426000D01*
G04 #@! TO.C,C4*
X129081801Y-79500000D02*
X129081801Y-79100000D01*
X129281801Y-79300000D02*
X128881801Y-79300000D01*
X124931000Y-78475000D02*
X124931000Y-77735000D01*
X124971000Y-78642000D02*
X124971000Y-77568000D01*
X125011000Y-78769000D02*
X125011000Y-77441000D01*
X125051000Y-78873000D02*
X125051000Y-77337000D01*
X125091000Y-78964000D02*
X125091000Y-77246000D01*
X125131000Y-79045000D02*
X125131000Y-77165000D01*
X125171000Y-79118000D02*
X125171000Y-77092000D01*
X125211000Y-79185000D02*
X125211000Y-77025000D01*
X125251000Y-79247000D02*
X125251000Y-76963000D01*
X125291000Y-79305000D02*
X125291000Y-76905000D01*
X125331000Y-79359000D02*
X125331000Y-76851000D01*
X125371000Y-79409000D02*
X125371000Y-76801000D01*
X125411000Y-79456000D02*
X125411000Y-76754000D01*
X125451000Y-77265000D02*
X125451000Y-76709000D01*
X125451000Y-79501000D02*
X125451000Y-78945000D01*
X125491000Y-77265000D02*
X125491000Y-76667000D01*
X125491000Y-79543000D02*
X125491000Y-78945000D01*
X125531000Y-77265000D02*
X125531000Y-76627000D01*
X125531000Y-79583000D02*
X125531000Y-78945000D01*
X125571000Y-77265000D02*
X125571000Y-76589000D01*
X125571000Y-79621000D02*
X125571000Y-78945000D01*
X125611000Y-77265000D02*
X125611000Y-76553000D01*
X125611000Y-79657000D02*
X125611000Y-78945000D01*
X125651000Y-77265000D02*
X125651000Y-76518000D01*
X125651000Y-79692000D02*
X125651000Y-78945000D01*
X125691000Y-77265000D02*
X125691000Y-76486000D01*
X125691000Y-79724000D02*
X125691000Y-78945000D01*
X125731000Y-77265000D02*
X125731000Y-76455000D01*
X125731000Y-79755000D02*
X125731000Y-78945000D01*
X125771000Y-77265000D02*
X125771000Y-76425000D01*
X125771000Y-79785000D02*
X125771000Y-78945000D01*
X125811000Y-77265000D02*
X125811000Y-76397000D01*
X125811000Y-79813000D02*
X125811000Y-78945000D01*
X125851000Y-77265000D02*
X125851000Y-76370000D01*
X125851000Y-79840000D02*
X125851000Y-78945000D01*
X125891000Y-77265000D02*
X125891000Y-76345000D01*
X125891000Y-79865000D02*
X125891000Y-78945000D01*
X125931000Y-77265000D02*
X125931000Y-76320000D01*
X125931000Y-79890000D02*
X125931000Y-78945000D01*
X125971000Y-77265000D02*
X125971000Y-76297000D01*
X125971000Y-79913000D02*
X125971000Y-78945000D01*
X126011000Y-77265000D02*
X126011000Y-76275000D01*
X126011000Y-79935000D02*
X126011000Y-78945000D01*
X126051000Y-77265000D02*
X126051000Y-76254000D01*
X126051000Y-79956000D02*
X126051000Y-78945000D01*
X126091000Y-77265000D02*
X126091000Y-76235000D01*
X126091000Y-79975000D02*
X126091000Y-78945000D01*
X126131000Y-77265000D02*
X126131000Y-76216000D01*
X126131000Y-79994000D02*
X126131000Y-78945000D01*
X126171000Y-77265000D02*
X126171000Y-76198000D01*
X126171000Y-80012000D02*
X126171000Y-78945000D01*
X126211000Y-77265000D02*
X126211000Y-76181000D01*
X126211000Y-80029000D02*
X126211000Y-78945000D01*
X126251000Y-77265000D02*
X126251000Y-76165000D01*
X126251000Y-80045000D02*
X126251000Y-78945000D01*
X126291000Y-77265000D02*
X126291000Y-76151000D01*
X126291000Y-80059000D02*
X126291000Y-78945000D01*
X126332000Y-77265000D02*
X126332000Y-76137000D01*
X126332000Y-80073000D02*
X126332000Y-78945000D01*
X126372000Y-77265000D02*
X126372000Y-76123000D01*
X126372000Y-80087000D02*
X126372000Y-78945000D01*
X126412000Y-77265000D02*
X126412000Y-76111000D01*
X126412000Y-80099000D02*
X126412000Y-78945000D01*
X126452000Y-77265000D02*
X126452000Y-76100000D01*
X126452000Y-80110000D02*
X126452000Y-78945000D01*
X126492000Y-77265000D02*
X126492000Y-76089000D01*
X126492000Y-80121000D02*
X126492000Y-78945000D01*
X126532000Y-77265000D02*
X126532000Y-76080000D01*
X126532000Y-80130000D02*
X126532000Y-78945000D01*
X126572000Y-77265000D02*
X126572000Y-76071000D01*
X126572000Y-80139000D02*
X126572000Y-78945000D01*
X126612000Y-77265000D02*
X126612000Y-76063000D01*
X126612000Y-80147000D02*
X126612000Y-78945000D01*
X126652000Y-77265000D02*
X126652000Y-76055000D01*
X126652000Y-80155000D02*
X126652000Y-78945000D01*
X126692000Y-77265000D02*
X126692000Y-76049000D01*
X126692000Y-80161000D02*
X126692000Y-78945000D01*
X126732000Y-77265000D02*
X126732000Y-76043000D01*
X126732000Y-80167000D02*
X126732000Y-78945000D01*
X126772000Y-77265000D02*
X126772000Y-76038000D01*
X126772000Y-80172000D02*
X126772000Y-78945000D01*
X126812000Y-77265000D02*
X126812000Y-76034000D01*
X126812000Y-80176000D02*
X126812000Y-78945000D01*
X126852000Y-77265000D02*
X126852000Y-76031000D01*
X126852000Y-80179000D02*
X126852000Y-78945000D01*
X126892000Y-77265000D02*
X126892000Y-76028000D01*
X126892000Y-80182000D02*
X126892000Y-78945000D01*
X126932000Y-80184000D02*
X126932000Y-78945000D01*
X126932000Y-77265000D02*
X126932000Y-76026000D01*
X126972000Y-80185000D02*
X126972000Y-78945000D01*
X126972000Y-77265000D02*
X126972000Y-76025000D01*
X127012000Y-80185000D02*
X127012000Y-78945000D01*
X127012000Y-77265000D02*
X127012000Y-76025000D01*
X129132000Y-78105000D02*
G75*
G03X129132000Y-78105000I-2120000J0D01*
G01*
G04 #@! TO.C,C5*
X128985000Y-106680000D02*
G75*
G03X128985000Y-106680000I-5120000J0D01*
G01*
X123865000Y-111760000D02*
X123865000Y-101600000D01*
X123825000Y-111760000D02*
X123825000Y-101600000D01*
X123785000Y-111760000D02*
X123785000Y-101600000D01*
X123745000Y-111759000D02*
X123745000Y-101601000D01*
X123705000Y-111758000D02*
X123705000Y-101602000D01*
X123665000Y-111757000D02*
X123665000Y-101603000D01*
X123625000Y-111755000D02*
X123625000Y-101605000D01*
X123585000Y-111753000D02*
X123585000Y-101607000D01*
X123545000Y-111750000D02*
X123545000Y-101610000D01*
X123505000Y-111748000D02*
X123505000Y-101612000D01*
X123465000Y-111745000D02*
X123465000Y-101615000D01*
X123425000Y-111742000D02*
X123425000Y-101618000D01*
X123385000Y-111738000D02*
X123385000Y-101622000D01*
X123345000Y-111734000D02*
X123345000Y-101626000D01*
X123305000Y-111730000D02*
X123305000Y-101630000D01*
X123265000Y-111725000D02*
X123265000Y-101635000D01*
X123225000Y-111720000D02*
X123225000Y-101640000D01*
X123185000Y-111715000D02*
X123185000Y-101645000D01*
X123144000Y-111710000D02*
X123144000Y-101650000D01*
X123104000Y-111704000D02*
X123104000Y-101656000D01*
X123064000Y-111698000D02*
X123064000Y-101662000D01*
X123024000Y-111691000D02*
X123024000Y-101669000D01*
X122984000Y-111684000D02*
X122984000Y-101676000D01*
X122944000Y-111677000D02*
X122944000Y-101683000D01*
X122904000Y-111670000D02*
X122904000Y-101690000D01*
X122864000Y-111662000D02*
X122864000Y-101698000D01*
X122824000Y-111654000D02*
X122824000Y-101706000D01*
X122784000Y-111645000D02*
X122784000Y-101715000D01*
X122744000Y-111636000D02*
X122744000Y-101724000D01*
X122704000Y-111627000D02*
X122704000Y-101733000D01*
X122664000Y-111618000D02*
X122664000Y-101742000D01*
X122624000Y-111608000D02*
X122624000Y-101752000D01*
X122584000Y-111598000D02*
X122584000Y-107921000D01*
X122584000Y-105439000D02*
X122584000Y-101762000D01*
X122544000Y-111587000D02*
X122544000Y-107921000D01*
X122544000Y-105439000D02*
X122544000Y-101773000D01*
X122504000Y-111577000D02*
X122504000Y-107921000D01*
X122504000Y-105439000D02*
X122504000Y-101783000D01*
X122464000Y-111565000D02*
X122464000Y-107921000D01*
X122464000Y-105439000D02*
X122464000Y-101795000D01*
X122424000Y-111554000D02*
X122424000Y-107921000D01*
X122424000Y-105439000D02*
X122424000Y-101806000D01*
X122384000Y-111542000D02*
X122384000Y-107921000D01*
X122384000Y-105439000D02*
X122384000Y-101818000D01*
X122344000Y-111530000D02*
X122344000Y-107921000D01*
X122344000Y-105439000D02*
X122344000Y-101830000D01*
X122304000Y-111517000D02*
X122304000Y-107921000D01*
X122304000Y-105439000D02*
X122304000Y-101843000D01*
X122264000Y-111504000D02*
X122264000Y-107921000D01*
X122264000Y-105439000D02*
X122264000Y-101856000D01*
X122224000Y-111491000D02*
X122224000Y-107921000D01*
X122224000Y-105439000D02*
X122224000Y-101869000D01*
X122184000Y-111477000D02*
X122184000Y-107921000D01*
X122184000Y-105439000D02*
X122184000Y-101883000D01*
X122144000Y-111463000D02*
X122144000Y-107921000D01*
X122144000Y-105439000D02*
X122144000Y-101897000D01*
X122104000Y-111448000D02*
X122104000Y-107921000D01*
X122104000Y-105439000D02*
X122104000Y-101912000D01*
X122064000Y-111434000D02*
X122064000Y-107921000D01*
X122064000Y-105439000D02*
X122064000Y-101926000D01*
X122024000Y-111418000D02*
X122024000Y-107921000D01*
X122024000Y-105439000D02*
X122024000Y-101942000D01*
X121984000Y-111403000D02*
X121984000Y-107921000D01*
X121984000Y-105439000D02*
X121984000Y-101957000D01*
X121944000Y-111387000D02*
X121944000Y-107921000D01*
X121944000Y-105439000D02*
X121944000Y-101973000D01*
X121904000Y-111370000D02*
X121904000Y-107921000D01*
X121904000Y-105439000D02*
X121904000Y-101990000D01*
X121864000Y-111354000D02*
X121864000Y-107921000D01*
X121864000Y-105439000D02*
X121864000Y-102006000D01*
X121824000Y-111337000D02*
X121824000Y-107921000D01*
X121824000Y-105439000D02*
X121824000Y-102023000D01*
X121784000Y-111319000D02*
X121784000Y-107921000D01*
X121784000Y-105439000D02*
X121784000Y-102041000D01*
X121744000Y-111301000D02*
X121744000Y-107921000D01*
X121744000Y-105439000D02*
X121744000Y-102059000D01*
X121704000Y-111283000D02*
X121704000Y-107921000D01*
X121704000Y-105439000D02*
X121704000Y-102077000D01*
X121664000Y-111264000D02*
X121664000Y-107921000D01*
X121664000Y-105439000D02*
X121664000Y-102096000D01*
X121624000Y-111244000D02*
X121624000Y-107921000D01*
X121624000Y-105439000D02*
X121624000Y-102116000D01*
X121584000Y-111225000D02*
X121584000Y-107921000D01*
X121584000Y-105439000D02*
X121584000Y-102135000D01*
X121544000Y-111205000D02*
X121544000Y-107921000D01*
X121544000Y-105439000D02*
X121544000Y-102155000D01*
X121504000Y-111184000D02*
X121504000Y-107921000D01*
X121504000Y-105439000D02*
X121504000Y-102176000D01*
X121464000Y-111163000D02*
X121464000Y-107921000D01*
X121464000Y-105439000D02*
X121464000Y-102197000D01*
X121424000Y-111142000D02*
X121424000Y-107921000D01*
X121424000Y-105439000D02*
X121424000Y-102218000D01*
X121384000Y-111120000D02*
X121384000Y-107921000D01*
X121384000Y-105439000D02*
X121384000Y-102240000D01*
X121344000Y-111097000D02*
X121344000Y-107921000D01*
X121344000Y-105439000D02*
X121344000Y-102263000D01*
X121304000Y-111075000D02*
X121304000Y-107921000D01*
X121304000Y-105439000D02*
X121304000Y-102285000D01*
X121264000Y-111051000D02*
X121264000Y-107921000D01*
X121264000Y-105439000D02*
X121264000Y-102309000D01*
X121224000Y-111027000D02*
X121224000Y-107921000D01*
X121224000Y-105439000D02*
X121224000Y-102333000D01*
X121184000Y-111003000D02*
X121184000Y-107921000D01*
X121184000Y-105439000D02*
X121184000Y-102357000D01*
X121144000Y-110978000D02*
X121144000Y-107921000D01*
X121144000Y-105439000D02*
X121144000Y-102382000D01*
X121104000Y-110953000D02*
X121104000Y-107921000D01*
X121104000Y-105439000D02*
X121104000Y-102407000D01*
X121064000Y-110927000D02*
X121064000Y-107921000D01*
X121064000Y-105439000D02*
X121064000Y-102433000D01*
X121024000Y-110901000D02*
X121024000Y-107921000D01*
X121024000Y-105439000D02*
X121024000Y-102459000D01*
X120984000Y-110874000D02*
X120984000Y-107921000D01*
X120984000Y-105439000D02*
X120984000Y-102486000D01*
X120944000Y-110846000D02*
X120944000Y-107921000D01*
X120944000Y-105439000D02*
X120944000Y-102514000D01*
X120904000Y-110818000D02*
X120904000Y-107921000D01*
X120904000Y-105439000D02*
X120904000Y-102542000D01*
X120864000Y-110790000D02*
X120864000Y-107921000D01*
X120864000Y-105439000D02*
X120864000Y-102570000D01*
X120824000Y-110760000D02*
X120824000Y-107921000D01*
X120824000Y-105439000D02*
X120824000Y-102600000D01*
X120784000Y-110730000D02*
X120784000Y-107921000D01*
X120784000Y-105439000D02*
X120784000Y-102630000D01*
X120744000Y-110700000D02*
X120744000Y-107921000D01*
X120744000Y-105439000D02*
X120744000Y-102660000D01*
X120704000Y-110669000D02*
X120704000Y-107921000D01*
X120704000Y-105439000D02*
X120704000Y-102691000D01*
X120664000Y-110637000D02*
X120664000Y-107921000D01*
X120664000Y-105439000D02*
X120664000Y-102723000D01*
X120624000Y-110605000D02*
X120624000Y-107921000D01*
X120624000Y-105439000D02*
X120624000Y-102755000D01*
X120584000Y-110572000D02*
X120584000Y-107921000D01*
X120584000Y-105439000D02*
X120584000Y-102788000D01*
X120544000Y-110538000D02*
X120544000Y-107921000D01*
X120544000Y-105439000D02*
X120544000Y-102822000D01*
X120504000Y-110504000D02*
X120504000Y-107921000D01*
X120504000Y-105439000D02*
X120504000Y-102856000D01*
X120464000Y-110469000D02*
X120464000Y-107921000D01*
X120464000Y-105439000D02*
X120464000Y-102891000D01*
X120424000Y-110433000D02*
X120424000Y-107921000D01*
X120424000Y-105439000D02*
X120424000Y-102927000D01*
X120384000Y-110396000D02*
X120384000Y-107921000D01*
X120384000Y-105439000D02*
X120384000Y-102964000D01*
X120344000Y-110359000D02*
X120344000Y-107921000D01*
X120344000Y-105439000D02*
X120344000Y-103001000D01*
X120304000Y-110320000D02*
X120304000Y-107921000D01*
X120304000Y-105439000D02*
X120304000Y-103040000D01*
X120264000Y-110281000D02*
X120264000Y-107921000D01*
X120264000Y-105439000D02*
X120264000Y-103079000D01*
X120224000Y-110241000D02*
X120224000Y-107921000D01*
X120224000Y-105439000D02*
X120224000Y-103119000D01*
X120184000Y-110200000D02*
X120184000Y-107921000D01*
X120184000Y-105439000D02*
X120184000Y-103160000D01*
X120144000Y-110158000D02*
X120144000Y-107921000D01*
X120144000Y-105439000D02*
X120144000Y-103202000D01*
X120104000Y-110116000D02*
X120104000Y-103244000D01*
X120064000Y-110072000D02*
X120064000Y-103288000D01*
X120024000Y-110027000D02*
X120024000Y-103333000D01*
X119984000Y-109981000D02*
X119984000Y-103379000D01*
X119944000Y-109934000D02*
X119944000Y-103426000D01*
X119904000Y-109886000D02*
X119904000Y-103474000D01*
X119864000Y-109836000D02*
X119864000Y-103524000D01*
X119824000Y-109786000D02*
X119824000Y-103574000D01*
X119784000Y-109734000D02*
X119784000Y-103626000D01*
X119744000Y-109680000D02*
X119744000Y-103680000D01*
X119704000Y-109625000D02*
X119704000Y-103735000D01*
X119664000Y-109569000D02*
X119664000Y-103791000D01*
X119624000Y-109510000D02*
X119624000Y-103850000D01*
X119584000Y-109450000D02*
X119584000Y-103910000D01*
X119544000Y-109389000D02*
X119544000Y-103971000D01*
X119504000Y-109325000D02*
X119504000Y-104035000D01*
X119464000Y-109259000D02*
X119464000Y-104101000D01*
X119424000Y-109190000D02*
X119424000Y-104170000D01*
X119384000Y-109119000D02*
X119384000Y-104241000D01*
X119344000Y-109045000D02*
X119344000Y-104315000D01*
X119304000Y-108969000D02*
X119304000Y-104391000D01*
X119264000Y-108889000D02*
X119264000Y-104471000D01*
X119224000Y-108805000D02*
X119224000Y-104555000D01*
X119184000Y-108717000D02*
X119184000Y-104643000D01*
X119144000Y-108624000D02*
X119144000Y-104736000D01*
X119104000Y-108526000D02*
X119104000Y-104834000D01*
X119064000Y-108422000D02*
X119064000Y-104938000D01*
X119024000Y-108310000D02*
X119024000Y-105050000D01*
X118984000Y-108190000D02*
X118984000Y-105170000D01*
X118944000Y-108058000D02*
X118944000Y-105302000D01*
X118904000Y-107910000D02*
X118904000Y-105450000D01*
X118864000Y-107742000D02*
X118864000Y-105618000D01*
X118824000Y-107542000D02*
X118824000Y-105818000D01*
X118784000Y-107279000D02*
X118784000Y-106081000D01*
X129344646Y-109555000D02*
X128344646Y-109555000D01*
X128844646Y-110055000D02*
X128844646Y-109055000D01*
G04 #@! TO.C,D2*
X147665000Y-109665000D02*
X147665000Y-109821000D01*
X147665000Y-107349000D02*
X147665000Y-107505000D01*
X150266130Y-109664837D02*
G75*
G02X148184039Y-109665000I-1041130J1079837D01*
G01*
X150266130Y-107505163D02*
G75*
G03X148184039Y-107505000I-1041130J-1079837D01*
G01*
X150897335Y-109663608D02*
G75*
G02X147665000Y-109820516I-1672335J1078608D01*
G01*
X150897335Y-107506392D02*
G75*
G03X147665000Y-107349484I-1672335J-1078608D01*
G01*
G04 #@! TO.C,D4*
X150897335Y-103061392D02*
G75*
G03X147665000Y-102904484I-1672335J-1078608D01*
G01*
X150897335Y-105218608D02*
G75*
G02X147665000Y-105375516I-1672335J1078608D01*
G01*
X150266130Y-103060163D02*
G75*
G03X148184039Y-103060000I-1041130J-1079837D01*
G01*
X150266130Y-105219837D02*
G75*
G02X148184039Y-105220000I-1041130J1079837D01*
G01*
X147665000Y-102904000D02*
X147665000Y-103060000D01*
X147665000Y-105220000D02*
X147665000Y-105376000D01*
G04 #@! TO.C,D6*
X115076000Y-100100000D02*
X115076000Y-103100000D01*
X110476000Y-103100000D02*
X110476000Y-100100000D01*
X115076000Y-99000000D02*
X115076000Y-99200000D01*
X110476000Y-99000000D02*
X115076000Y-99000000D01*
X110476000Y-99200000D02*
X110476000Y-99000000D01*
X110476000Y-104200000D02*
X116276000Y-104200000D01*
X110476000Y-104000000D02*
X110476000Y-104200000D01*
D12*
G04 #@! TO.C,J1*
X158330000Y-83756000D02*
X163030000Y-83756000D01*
X163030000Y-83756000D02*
X163030000Y-82156000D01*
X158630000Y-75756000D02*
X162830000Y-75756000D01*
X162830000Y-75756000D02*
X162930000Y-75756000D01*
X162930000Y-75756000D02*
X163030000Y-75756000D01*
X163030000Y-75756000D02*
X163030000Y-79756000D01*
X148730000Y-83756000D02*
X146730000Y-81056000D01*
X148730000Y-75756000D02*
X146730000Y-78456000D01*
X146730000Y-79756000D02*
X146730000Y-81006000D01*
X146730000Y-79756000D02*
X146730000Y-78506000D01*
X151130000Y-83756000D02*
X148730000Y-83756000D01*
X154130000Y-83756000D02*
X151130000Y-83756000D01*
X151130000Y-75756000D02*
X148730000Y-75756000D01*
X154230000Y-75756000D02*
X151130000Y-75756000D01*
X146730000Y-79656000D02*
X146730000Y-79956000D01*
X163030000Y-79756000D02*
X163030000Y-82156000D01*
X158630000Y-75756000D02*
X154230000Y-75756000D01*
X158330000Y-83756000D02*
X154130000Y-83756000D01*
D11*
G04 #@! TO.C,J2*
X106446000Y-110918000D02*
X106446000Y-104948000D01*
X106446000Y-104948000D02*
X98826000Y-104948000D01*
X98826000Y-104948000D02*
X98826000Y-110918000D01*
X98826000Y-110918000D02*
X106446000Y-110918000D01*
X103136000Y-110908000D02*
X103136000Y-110158000D01*
X103136000Y-110158000D02*
X102136000Y-110158000D01*
X102136000Y-110158000D02*
X102136000Y-110908000D01*
X102136000Y-110908000D02*
X103136000Y-110908000D01*
X106436000Y-110908000D02*
X106436000Y-110158000D01*
X106436000Y-110158000D02*
X104636000Y-110158000D01*
X104636000Y-110158000D02*
X104636000Y-110908000D01*
X104636000Y-110908000D02*
X106436000Y-110908000D01*
X100636000Y-110908000D02*
X100636000Y-110158000D01*
X100636000Y-110158000D02*
X98836000Y-110158000D01*
X98836000Y-110158000D02*
X98836000Y-110908000D01*
X98836000Y-110908000D02*
X100636000Y-110908000D01*
X106436000Y-108658000D02*
X105686000Y-108658000D01*
X105686000Y-108658000D02*
X105686000Y-105708000D01*
X105686000Y-105708000D02*
X102636000Y-105708000D01*
X98836000Y-108658000D02*
X99586000Y-108658000D01*
X99586000Y-108658000D02*
X99586000Y-105708000D01*
X99586000Y-105708000D02*
X102636000Y-105708000D01*
X105486000Y-111208000D02*
X106736000Y-111208000D01*
X106736000Y-111208000D02*
X106736000Y-109958000D01*
D12*
G04 #@! TO.C,J3*
X158347442Y-92646000D02*
X154147442Y-92646000D01*
X158647442Y-84646000D02*
X154247442Y-84646000D01*
X163047442Y-88646000D02*
X163047442Y-91046000D01*
X146747442Y-88546000D02*
X146747442Y-88846000D01*
X154247442Y-84646000D02*
X151147442Y-84646000D01*
X151147442Y-84646000D02*
X148747442Y-84646000D01*
X154147442Y-92646000D02*
X151147442Y-92646000D01*
X151147442Y-92646000D02*
X148747442Y-92646000D01*
X146747442Y-88646000D02*
X146747442Y-87396000D01*
X146747442Y-88646000D02*
X146747442Y-89896000D01*
X148747442Y-84646000D02*
X146747442Y-87346000D01*
X148747442Y-92646000D02*
X146747442Y-89946000D01*
X163047442Y-84646000D02*
X163047442Y-88646000D01*
X162947442Y-84646000D02*
X163047442Y-84646000D01*
X162847442Y-84646000D02*
X162947442Y-84646000D01*
X158647442Y-84646000D02*
X162847442Y-84646000D01*
X163047442Y-92646000D02*
X163047442Y-91046000D01*
X158347442Y-92646000D02*
X163047442Y-92646000D01*
G04 #@! TO.C,J4*
X158347442Y-101437319D02*
X163047442Y-101437319D01*
X163047442Y-101437319D02*
X163047442Y-99837319D01*
X158647442Y-93437319D02*
X162847442Y-93437319D01*
X162847442Y-93437319D02*
X162947442Y-93437319D01*
X162947442Y-93437319D02*
X163047442Y-93437319D01*
X163047442Y-93437319D02*
X163047442Y-97437319D01*
X148747442Y-101437319D02*
X146747442Y-98737319D01*
X148747442Y-93437319D02*
X146747442Y-96137319D01*
X146747442Y-97437319D02*
X146747442Y-98687319D01*
X146747442Y-97437319D02*
X146747442Y-96187319D01*
X151147442Y-101437319D02*
X148747442Y-101437319D01*
X154147442Y-101437319D02*
X151147442Y-101437319D01*
X151147442Y-93437319D02*
X148747442Y-93437319D01*
X154247442Y-93437319D02*
X151147442Y-93437319D01*
X146747442Y-97337319D02*
X146747442Y-97637319D01*
X163047442Y-97437319D02*
X163047442Y-99837319D01*
X158647442Y-93437319D02*
X154247442Y-93437319D01*
X158347442Y-101437319D02*
X154147442Y-101437319D01*
D11*
G04 #@! TO.C,J5*
X116388000Y-111208000D02*
X116388000Y-109958000D01*
X115138000Y-111208000D02*
X116388000Y-111208000D01*
X109238000Y-105708000D02*
X112288000Y-105708000D01*
X109238000Y-108658000D02*
X109238000Y-105708000D01*
X108488000Y-108658000D02*
X109238000Y-108658000D01*
X115338000Y-105708000D02*
X112288000Y-105708000D01*
X115338000Y-108658000D02*
X115338000Y-105708000D01*
X116088000Y-108658000D02*
X115338000Y-108658000D01*
X108488000Y-110908000D02*
X110288000Y-110908000D01*
X108488000Y-110158000D02*
X108488000Y-110908000D01*
X110288000Y-110158000D02*
X108488000Y-110158000D01*
X110288000Y-110908000D02*
X110288000Y-110158000D01*
X114288000Y-110908000D02*
X116088000Y-110908000D01*
X114288000Y-110158000D02*
X114288000Y-110908000D01*
X116088000Y-110158000D02*
X114288000Y-110158000D01*
X116088000Y-110908000D02*
X116088000Y-110158000D01*
X111788000Y-110908000D02*
X112788000Y-110908000D01*
X111788000Y-110158000D02*
X111788000Y-110908000D01*
X112788000Y-110158000D02*
X111788000Y-110158000D01*
X112788000Y-110908000D02*
X112788000Y-110158000D01*
X108478000Y-110918000D02*
X116098000Y-110918000D01*
X108478000Y-104948000D02*
X108478000Y-110918000D01*
X116098000Y-104948000D02*
X108478000Y-104948000D01*
X116098000Y-110918000D02*
X116098000Y-104948000D01*
G04 #@! TO.C,Q1*
X139646000Y-81947000D02*
X139646000Y-83457000D01*
X135945000Y-81947000D02*
X135945000Y-83457000D01*
X132675000Y-83457000D02*
X142915000Y-83457000D01*
X142915000Y-81947000D02*
X142915000Y-86588000D01*
X132675000Y-81947000D02*
X132675000Y-86588000D01*
X132675000Y-86588000D02*
X142915000Y-86588000D01*
X132675000Y-81947000D02*
X142915000Y-81947000D01*
G04 #@! TO.C,U1*
X105012000Y-87189000D02*
X103362000Y-87189000D01*
X105012000Y-94929000D02*
X105012000Y-87189000D01*
X99712000Y-94929000D02*
X105012000Y-94929000D01*
X99712000Y-87189000D02*
X99712000Y-94929000D01*
X101362000Y-87189000D02*
X99712000Y-87189000D01*
X103362000Y-87189000D02*
G75*
G02X101362000Y-87189000I-1000000J0D01*
G01*
G04 #@! TO.C,U2*
X124825000Y-86300000D02*
G75*
G02X122825000Y-86300000I-1000000J0D01*
G01*
X122825000Y-86300000D02*
X121175000Y-86300000D01*
X121175000Y-86300000D02*
X121175000Y-96580000D01*
X121175000Y-96580000D02*
X126475000Y-96580000D01*
X126475000Y-96580000D02*
X126475000Y-86300000D01*
X126475000Y-86300000D02*
X124825000Y-86300000D01*
G04 #@! TO.C,U3*
X113776000Y-87189000D02*
G75*
G02X111776000Y-87189000I-1000000J0D01*
G01*
X111776000Y-87189000D02*
X110126000Y-87189000D01*
X110126000Y-87189000D02*
X110126000Y-94929000D01*
X110126000Y-94929000D02*
X115426000Y-94929000D01*
X115426000Y-94929000D02*
X115426000Y-87189000D01*
X115426000Y-87189000D02*
X113776000Y-87189000D01*
G04 #@! TO.C,D3*
X166426371Y-90551000D02*
G75*
G03X166426371Y-90551000I-1326371J0D01*
G01*
X165100000Y-89224629D02*
X165100000Y-86571000D01*
G04 #@! TO.C,D5*
X165100000Y-98114629D02*
X165100000Y-95461000D01*
X166426371Y-99441000D02*
G75*
G03X166426371Y-99441000I-1326371J0D01*
G01*
G04 #@! TO.C,R1*
X105156000Y-80545000D02*
X105156000Y-77935000D01*
X106526000Y-81915000D02*
G75*
G03X106526000Y-81915000I-1370000J0D01*
G01*
G04 #@! TO.C,R2*
X106272000Y-85344000D02*
G75*
G03X106272000Y-85344000I-1370000J0D01*
G01*
X103532000Y-85344000D02*
X100922000Y-85344000D01*
G04 #@! TO.C,R3*
X103405000Y-97155000D02*
X100795000Y-97155000D01*
X106145000Y-97155000D02*
G75*
G03X106145000Y-97155000I-1370000J0D01*
G01*
G04 #@! TO.C,R4*
X155040000Y-108585000D02*
G75*
G03X155040000Y-108585000I-1370000J0D01*
G01*
X155040000Y-108585000D02*
X157650000Y-108585000D01*
G04 #@! TO.C,R5*
X155040000Y-104140000D02*
X157650000Y-104140000D01*
X155040000Y-104140000D02*
G75*
G03X155040000Y-104140000I-1370000J0D01*
G01*
G04 #@! TO.C,R6*
X116686000Y-81915000D02*
G75*
G03X116686000Y-81915000I-1370000J0D01*
G01*
X115316000Y-80545000D02*
X115316000Y-77935000D01*
G04 #@! TO.C,R7*
X113946000Y-85344000D02*
X111336000Y-85344000D01*
X116686000Y-85344000D02*
G75*
G03X116686000Y-85344000I-1370000J0D01*
G01*
G04 #@! TO.C,R8*
X116305000Y-97155000D02*
G75*
G03X116305000Y-97155000I-1370000J0D01*
G01*
X113565000Y-97155000D02*
X110955000Y-97155000D01*
G04 #@! TO.C,J7*
X107141000Y-83205000D02*
X113111000Y-83205000D01*
X113111000Y-83205000D02*
X113111000Y-75585000D01*
X113111000Y-75585000D02*
X107141000Y-75585000D01*
X107141000Y-75585000D02*
X107141000Y-83205000D01*
X107151000Y-79895000D02*
X107901000Y-79895000D01*
X107901000Y-79895000D02*
X107901000Y-78895000D01*
X107901000Y-78895000D02*
X107151000Y-78895000D01*
X107151000Y-78895000D02*
X107151000Y-79895000D01*
X107151000Y-83195000D02*
X107901000Y-83195000D01*
X107901000Y-83195000D02*
X107901000Y-81395000D01*
X107901000Y-81395000D02*
X107151000Y-81395000D01*
X107151000Y-81395000D02*
X107151000Y-83195000D01*
X107151000Y-77395000D02*
X107901000Y-77395000D01*
X107901000Y-77395000D02*
X107901000Y-75595000D01*
X107901000Y-75595000D02*
X107151000Y-75595000D01*
X107151000Y-75595000D02*
X107151000Y-77395000D01*
X109401000Y-83195000D02*
X109401000Y-82445000D01*
X109401000Y-82445000D02*
X112351000Y-82445000D01*
X112351000Y-82445000D02*
X112351000Y-79395000D01*
X109401000Y-75595000D02*
X109401000Y-76345000D01*
X109401000Y-76345000D02*
X112351000Y-76345000D01*
X112351000Y-76345000D02*
X112351000Y-79395000D01*
X106851000Y-82245000D02*
X106851000Y-83495000D01*
X106851000Y-83495000D02*
X108101000Y-83495000D01*
G04 #@! TO.C,C2*
X167601000Y-79768000D02*
G75*
G03X167601000Y-79768000I-2120000J0D01*
G01*
X166321000Y-79768000D02*
X167561000Y-79768000D01*
X163401000Y-79768000D02*
X164641000Y-79768000D01*
X166321000Y-79728000D02*
X167561000Y-79728000D01*
X163401000Y-79728000D02*
X164641000Y-79728000D01*
X166321000Y-79688000D02*
X167560000Y-79688000D01*
X163402000Y-79688000D02*
X164641000Y-79688000D01*
X163404000Y-79648000D02*
X164641000Y-79648000D01*
X166321000Y-79648000D02*
X167558000Y-79648000D01*
X163407000Y-79608000D02*
X164641000Y-79608000D01*
X166321000Y-79608000D02*
X167555000Y-79608000D01*
X163410000Y-79568000D02*
X164641000Y-79568000D01*
X166321000Y-79568000D02*
X167552000Y-79568000D01*
X163414000Y-79528000D02*
X164641000Y-79528000D01*
X166321000Y-79528000D02*
X167548000Y-79528000D01*
X163419000Y-79488000D02*
X164641000Y-79488000D01*
X166321000Y-79488000D02*
X167543000Y-79488000D01*
X163425000Y-79448000D02*
X164641000Y-79448000D01*
X166321000Y-79448000D02*
X167537000Y-79448000D01*
X163431000Y-79408000D02*
X164641000Y-79408000D01*
X166321000Y-79408000D02*
X167531000Y-79408000D01*
X163439000Y-79368000D02*
X164641000Y-79368000D01*
X166321000Y-79368000D02*
X167523000Y-79368000D01*
X163447000Y-79328000D02*
X164641000Y-79328000D01*
X166321000Y-79328000D02*
X167515000Y-79328000D01*
X163456000Y-79288000D02*
X164641000Y-79288000D01*
X166321000Y-79288000D02*
X167506000Y-79288000D01*
X163465000Y-79248000D02*
X164641000Y-79248000D01*
X166321000Y-79248000D02*
X167497000Y-79248000D01*
X163476000Y-79208000D02*
X164641000Y-79208000D01*
X166321000Y-79208000D02*
X167486000Y-79208000D01*
X163487000Y-79168000D02*
X164641000Y-79168000D01*
X166321000Y-79168000D02*
X167475000Y-79168000D01*
X163499000Y-79128000D02*
X164641000Y-79128000D01*
X166321000Y-79128000D02*
X167463000Y-79128000D01*
X163513000Y-79088000D02*
X164641000Y-79088000D01*
X166321000Y-79088000D02*
X167449000Y-79088000D01*
X163527000Y-79047000D02*
X164641000Y-79047000D01*
X166321000Y-79047000D02*
X167435000Y-79047000D01*
X163541000Y-79007000D02*
X164641000Y-79007000D01*
X166321000Y-79007000D02*
X167421000Y-79007000D01*
X163557000Y-78967000D02*
X164641000Y-78967000D01*
X166321000Y-78967000D02*
X167405000Y-78967000D01*
X163574000Y-78927000D02*
X164641000Y-78927000D01*
X166321000Y-78927000D02*
X167388000Y-78927000D01*
X163592000Y-78887000D02*
X164641000Y-78887000D01*
X166321000Y-78887000D02*
X167370000Y-78887000D01*
X163611000Y-78847000D02*
X164641000Y-78847000D01*
X166321000Y-78847000D02*
X167351000Y-78847000D01*
X163630000Y-78807000D02*
X164641000Y-78807000D01*
X166321000Y-78807000D02*
X167332000Y-78807000D01*
X163651000Y-78767000D02*
X164641000Y-78767000D01*
X166321000Y-78767000D02*
X167311000Y-78767000D01*
X163673000Y-78727000D02*
X164641000Y-78727000D01*
X166321000Y-78727000D02*
X167289000Y-78727000D01*
X163696000Y-78687000D02*
X164641000Y-78687000D01*
X166321000Y-78687000D02*
X167266000Y-78687000D01*
X163721000Y-78647000D02*
X164641000Y-78647000D01*
X166321000Y-78647000D02*
X167241000Y-78647000D01*
X163746000Y-78607000D02*
X164641000Y-78607000D01*
X166321000Y-78607000D02*
X167216000Y-78607000D01*
X163773000Y-78567000D02*
X164641000Y-78567000D01*
X166321000Y-78567000D02*
X167189000Y-78567000D01*
X163801000Y-78527000D02*
X164641000Y-78527000D01*
X166321000Y-78527000D02*
X167161000Y-78527000D01*
X163831000Y-78487000D02*
X164641000Y-78487000D01*
X166321000Y-78487000D02*
X167131000Y-78487000D01*
X163862000Y-78447000D02*
X164641000Y-78447000D01*
X166321000Y-78447000D02*
X167100000Y-78447000D01*
X163894000Y-78407000D02*
X164641000Y-78407000D01*
X166321000Y-78407000D02*
X167068000Y-78407000D01*
X163929000Y-78367000D02*
X164641000Y-78367000D01*
X166321000Y-78367000D02*
X167033000Y-78367000D01*
X163965000Y-78327000D02*
X164641000Y-78327000D01*
X166321000Y-78327000D02*
X166997000Y-78327000D01*
X164003000Y-78287000D02*
X164641000Y-78287000D01*
X166321000Y-78287000D02*
X166959000Y-78287000D01*
X164043000Y-78247000D02*
X164641000Y-78247000D01*
X166321000Y-78247000D02*
X166919000Y-78247000D01*
X164085000Y-78207000D02*
X164641000Y-78207000D01*
X166321000Y-78207000D02*
X166877000Y-78207000D01*
X164130000Y-78167000D02*
X166832000Y-78167000D01*
X164177000Y-78127000D02*
X166785000Y-78127000D01*
X164227000Y-78087000D02*
X166735000Y-78087000D01*
X164281000Y-78047000D02*
X166681000Y-78047000D01*
X164339000Y-78007000D02*
X166623000Y-78007000D01*
X164401000Y-77967000D02*
X166561000Y-77967000D01*
X164468000Y-77927000D02*
X166494000Y-77927000D01*
X164541000Y-77887000D02*
X166421000Y-77887000D01*
X164622000Y-77847000D02*
X166340000Y-77847000D01*
X164713000Y-77807000D02*
X166249000Y-77807000D01*
X164817000Y-77767000D02*
X166145000Y-77767000D01*
X164944000Y-77727000D02*
X166018000Y-77727000D01*
X165111000Y-77687000D02*
X165851000Y-77687000D01*
X164286000Y-82037801D02*
X164286000Y-81637801D01*
X164086000Y-81837801D02*
X164486000Y-81837801D01*
G04 #@! TO.C,TP1*
X136095000Y-81837000D02*
X136095000Y-78437000D01*
X139495000Y-81837000D02*
X136095000Y-81837000D01*
X139495000Y-78437000D02*
X139495000Y-81837000D01*
X136095000Y-78437000D02*
X139495000Y-78437000D01*
G04 #@! TO.C,TP2*
X136095000Y-90502000D02*
X139495000Y-90502000D01*
X139495000Y-90502000D02*
X139495000Y-93902000D01*
X139495000Y-93902000D02*
X136095000Y-93902000D01*
X136095000Y-93902000D02*
X136095000Y-90502000D01*
G04 #@! TO.C,TP3*
X136095000Y-102567000D02*
X139495000Y-102567000D01*
X139495000Y-102567000D02*
X139495000Y-105967000D01*
X139495000Y-105967000D02*
X136095000Y-105967000D01*
X136095000Y-105967000D02*
X136095000Y-102567000D01*
G04 #@! TO.C,J6*
D13*
X97387142Y-74947428D02*
X97387142Y-74347428D01*
X97387142Y-74633142D02*
X97730000Y-74633142D01*
X97730000Y-74947428D02*
X97730000Y-74347428D01*
X98101428Y-74947428D02*
X98044285Y-74918857D01*
X98015714Y-74890285D01*
X97987142Y-74833142D01*
X97987142Y-74661714D01*
X98015714Y-74604571D01*
X98044285Y-74576000D01*
X98101428Y-74547428D01*
X98187142Y-74547428D01*
X98244285Y-74576000D01*
X98272857Y-74604571D01*
X98301428Y-74661714D01*
X98301428Y-74833142D01*
X98272857Y-74890285D01*
X98244285Y-74918857D01*
X98187142Y-74947428D01*
X98101428Y-74947428D01*
X98472857Y-74547428D02*
X98701428Y-74547428D01*
X98558571Y-74347428D02*
X98558571Y-74861714D01*
X98587142Y-74918857D01*
X98644285Y-74947428D01*
X98701428Y-74947428D01*
X99101428Y-74633142D02*
X99187142Y-74661714D01*
X99215714Y-74690285D01*
X99244285Y-74747428D01*
X99244285Y-74833142D01*
X99215714Y-74890285D01*
X99187142Y-74918857D01*
X99130000Y-74947428D01*
X98901428Y-74947428D01*
X98901428Y-74347428D01*
X99101428Y-74347428D01*
X99158571Y-74376000D01*
X99187142Y-74404571D01*
X99215714Y-74461714D01*
X99215714Y-74518857D01*
X99187142Y-74576000D01*
X99158571Y-74604571D01*
X99101428Y-74633142D01*
X98901428Y-74633142D01*
X99730000Y-74918857D02*
X99672857Y-74947428D01*
X99558571Y-74947428D01*
X99501428Y-74918857D01*
X99472857Y-74861714D01*
X99472857Y-74633142D01*
X99501428Y-74576000D01*
X99558571Y-74547428D01*
X99672857Y-74547428D01*
X99730000Y-74576000D01*
X99758571Y-74633142D01*
X99758571Y-74690285D01*
X99472857Y-74747428D01*
X100272857Y-74947428D02*
X100272857Y-74347428D01*
X100272857Y-74918857D02*
X100215714Y-74947428D01*
X100101428Y-74947428D01*
X100044285Y-74918857D01*
X100015714Y-74890285D01*
X99987142Y-74833142D01*
X99987142Y-74661714D01*
X100015714Y-74604571D01*
X100044285Y-74576000D01*
X100101428Y-74547428D01*
X100215714Y-74547428D01*
X100272857Y-74576000D01*
X100415714Y-75004571D02*
X100872857Y-75004571D01*
X101272857Y-74947428D02*
X101272857Y-74347428D01*
X101272857Y-74918857D02*
X101215714Y-74947428D01*
X101101428Y-74947428D01*
X101044285Y-74918857D01*
X101015714Y-74890285D01*
X100987142Y-74833142D01*
X100987142Y-74661714D01*
X101015714Y-74604571D01*
X101044285Y-74576000D01*
X101101428Y-74547428D01*
X101215714Y-74547428D01*
X101272857Y-74576000D01*
X101558571Y-74947428D02*
X101558571Y-74547428D01*
X101558571Y-74347428D02*
X101530000Y-74376000D01*
X101558571Y-74404571D01*
X101587142Y-74376000D01*
X101558571Y-74347428D01*
X101558571Y-74404571D01*
X101844285Y-74947428D02*
X101844285Y-74547428D01*
X101844285Y-74661714D02*
X101872857Y-74604571D01*
X101901428Y-74576000D01*
X101958571Y-74547428D01*
X102015714Y-74547428D01*
X102444285Y-74918857D02*
X102387142Y-74947428D01*
X102272857Y-74947428D01*
X102215714Y-74918857D01*
X102187142Y-74861714D01*
X102187142Y-74633142D01*
X102215714Y-74576000D01*
X102272857Y-74547428D01*
X102387142Y-74547428D01*
X102444285Y-74576000D01*
X102472857Y-74633142D01*
X102472857Y-74690285D01*
X102187142Y-74747428D01*
X102730000Y-74947428D02*
X102730000Y-74347428D01*
X102787142Y-74718857D02*
X102958571Y-74947428D01*
X102958571Y-74547428D02*
X102730000Y-74776000D01*
X103130000Y-74547428D02*
X103358571Y-74547428D01*
X103215714Y-74347428D02*
X103215714Y-74861714D01*
X103244285Y-74918857D01*
X103301428Y-74947428D01*
X103358571Y-74947428D01*
G04 #@! TO.C,D1*
X101877904Y-102052380D02*
X101877904Y-101052380D01*
X102116000Y-101052380D01*
X102258857Y-101100000D01*
X102354095Y-101195238D01*
X102401714Y-101290476D01*
X102449333Y-101480952D01*
X102449333Y-101623809D01*
X102401714Y-101814285D01*
X102354095Y-101909523D01*
X102258857Y-102004761D01*
X102116000Y-102052380D01*
X101877904Y-102052380D01*
X103401714Y-102052380D02*
X102830285Y-102052380D01*
X103116000Y-102052380D02*
X103116000Y-101052380D01*
X103020761Y-101195238D01*
X102925523Y-101290476D01*
X102830285Y-101338095D01*
G04 #@! TO.C,U4*
X123063095Y-81113380D02*
X123063095Y-81922904D01*
X123110714Y-82018142D01*
X123158333Y-82065761D01*
X123253571Y-82113380D01*
X123444047Y-82113380D01*
X123539285Y-82065761D01*
X123586904Y-82018142D01*
X123634523Y-81922904D01*
X123634523Y-81113380D01*
X124539285Y-81446714D02*
X124539285Y-82113380D01*
X124301190Y-81065761D02*
X124063095Y-81780047D01*
X124682142Y-81780047D01*
G04 #@! TO.C,SW1*
X165679380Y-110227619D02*
X165679380Y-110703809D01*
X164679380Y-110703809D01*
X165631761Y-109513333D02*
X165679380Y-109608571D01*
X165679380Y-109799047D01*
X165631761Y-109894285D01*
X165536523Y-109941904D01*
X165155571Y-109941904D01*
X165060333Y-109894285D01*
X165012714Y-109799047D01*
X165012714Y-109608571D01*
X165060333Y-109513333D01*
X165155571Y-109465714D01*
X165250809Y-109465714D01*
X165346047Y-109941904D01*
X165679380Y-108608571D02*
X164679380Y-108608571D01*
X165631761Y-108608571D02*
X165679380Y-108703809D01*
X165679380Y-108894285D01*
X165631761Y-108989523D01*
X165584142Y-109037142D01*
X165488904Y-109084761D01*
X165203190Y-109084761D01*
X165107952Y-109037142D01*
X165060333Y-108989523D01*
X165012714Y-108894285D01*
X165012714Y-108703809D01*
X165060333Y-108608571D01*
X164679380Y-107180000D02*
X164679380Y-106989523D01*
X164727000Y-106894285D01*
X164822238Y-106799047D01*
X165012714Y-106751428D01*
X165346047Y-106751428D01*
X165536523Y-106799047D01*
X165631761Y-106894285D01*
X165679380Y-106989523D01*
X165679380Y-107180000D01*
X165631761Y-107275238D01*
X165536523Y-107370476D01*
X165346047Y-107418095D01*
X165012714Y-107418095D01*
X164822238Y-107370476D01*
X164727000Y-107275238D01*
X164679380Y-107180000D01*
X165012714Y-106322857D02*
X165679380Y-106322857D01*
X165107952Y-106322857D02*
X165060333Y-106275238D01*
X165012714Y-106180000D01*
X165012714Y-106037142D01*
X165060333Y-105941904D01*
X165155571Y-105894285D01*
X165679380Y-105894285D01*
X164631761Y-104703809D02*
X165917476Y-105560952D01*
X164679380Y-104180000D02*
X164679380Y-103989523D01*
X164727000Y-103894285D01*
X164822238Y-103799047D01*
X165012714Y-103751428D01*
X165346047Y-103751428D01*
X165536523Y-103799047D01*
X165631761Y-103894285D01*
X165679380Y-103989523D01*
X165679380Y-104180000D01*
X165631761Y-104275238D01*
X165536523Y-104370476D01*
X165346047Y-104418095D01*
X165012714Y-104418095D01*
X164822238Y-104370476D01*
X164727000Y-104275238D01*
X164679380Y-104180000D01*
X165012714Y-103465714D02*
X165012714Y-103084761D01*
X165679380Y-103322857D02*
X164822238Y-103322857D01*
X164727000Y-103275238D01*
X164679380Y-103180000D01*
X164679380Y-103084761D01*
X165012714Y-102894285D02*
X165012714Y-102513333D01*
X165679380Y-102751428D02*
X164822238Y-102751428D01*
X164727000Y-102703809D01*
X164679380Y-102608571D01*
X164679380Y-102513333D01*
G04 #@! TO.C,Q3*
X131080714Y-101417380D02*
X131080714Y-100417380D01*
X131652142Y-101417380D01*
X131652142Y-100417380D01*
X132128333Y-101036428D02*
X132890238Y-101036428D01*
X133937857Y-101322142D02*
X133890238Y-101369761D01*
X133747380Y-101417380D01*
X133652142Y-101417380D01*
X133509285Y-101369761D01*
X133414047Y-101274523D01*
X133366428Y-101179285D01*
X133318809Y-100988809D01*
X133318809Y-100845952D01*
X133366428Y-100655476D01*
X133414047Y-100560238D01*
X133509285Y-100465000D01*
X133652142Y-100417380D01*
X133747380Y-100417380D01*
X133890238Y-100465000D01*
X133937857Y-100512619D01*
X134366428Y-101417380D02*
X134366428Y-100417380D01*
X134795000Y-101417380D02*
X134795000Y-100893571D01*
X134747380Y-100798333D01*
X134652142Y-100750714D01*
X134509285Y-100750714D01*
X134414047Y-100798333D01*
X134366428Y-100845952D01*
X135699761Y-101417380D02*
X135699761Y-100893571D01*
X135652142Y-100798333D01*
X135556904Y-100750714D01*
X135366428Y-100750714D01*
X135271190Y-100798333D01*
X135699761Y-101369761D02*
X135604523Y-101417380D01*
X135366428Y-101417380D01*
X135271190Y-101369761D01*
X135223571Y-101274523D01*
X135223571Y-101179285D01*
X135271190Y-101084047D01*
X135366428Y-101036428D01*
X135604523Y-101036428D01*
X135699761Y-100988809D01*
X136175952Y-100750714D02*
X136175952Y-101417380D01*
X136175952Y-100845952D02*
X136223571Y-100798333D01*
X136318809Y-100750714D01*
X136461666Y-100750714D01*
X136556904Y-100798333D01*
X136604523Y-100893571D01*
X136604523Y-101417380D01*
X137080714Y-100750714D02*
X137080714Y-101417380D01*
X137080714Y-100845952D02*
X137128333Y-100798333D01*
X137223571Y-100750714D01*
X137366428Y-100750714D01*
X137461666Y-100798333D01*
X137509285Y-100893571D01*
X137509285Y-101417380D01*
X138366428Y-101369761D02*
X138271190Y-101417380D01*
X138080714Y-101417380D01*
X137985476Y-101369761D01*
X137937857Y-101274523D01*
X137937857Y-100893571D01*
X137985476Y-100798333D01*
X138080714Y-100750714D01*
X138271190Y-100750714D01*
X138366428Y-100798333D01*
X138414047Y-100893571D01*
X138414047Y-100988809D01*
X137937857Y-101084047D01*
X138985476Y-101417380D02*
X138890238Y-101369761D01*
X138842619Y-101274523D01*
X138842619Y-100417380D01*
X139128333Y-101512619D02*
X139890238Y-101512619D01*
X140128333Y-101417380D02*
X140128333Y-100417380D01*
X140461666Y-101131666D01*
X140795000Y-100417380D01*
X140795000Y-101417380D01*
X141414047Y-101417380D02*
X141318809Y-101369761D01*
X141271190Y-101322142D01*
X141223571Y-101226904D01*
X141223571Y-100941190D01*
X141271190Y-100845952D01*
X141318809Y-100798333D01*
X141414047Y-100750714D01*
X141556904Y-100750714D01*
X141652142Y-100798333D01*
X141699761Y-100845952D01*
X141747380Y-100941190D01*
X141747380Y-101226904D01*
X141699761Y-101322142D01*
X141652142Y-101369761D01*
X141556904Y-101417380D01*
X141414047Y-101417380D01*
X142128333Y-101369761D02*
X142223571Y-101417380D01*
X142414047Y-101417380D01*
X142509285Y-101369761D01*
X142556904Y-101274523D01*
X142556904Y-101226904D01*
X142509285Y-101131666D01*
X142414047Y-101084047D01*
X142271190Y-101084047D01*
X142175952Y-101036428D01*
X142128333Y-100941190D01*
X142128333Y-100893571D01*
X142175952Y-100798333D01*
X142271190Y-100750714D01*
X142414047Y-100750714D01*
X142509285Y-100798333D01*
X142842619Y-100750714D02*
X143223571Y-100750714D01*
X142985476Y-101417380D02*
X142985476Y-100560238D01*
X143033095Y-100465000D01*
X143128333Y-100417380D01*
X143223571Y-100417380D01*
X143937857Y-101369761D02*
X143842619Y-101417380D01*
X143652142Y-101417380D01*
X143556904Y-101369761D01*
X143509285Y-101274523D01*
X143509285Y-100893571D01*
X143556904Y-100798333D01*
X143652142Y-100750714D01*
X143842619Y-100750714D01*
X143937857Y-100798333D01*
X143985476Y-100893571D01*
X143985476Y-100988809D01*
X143509285Y-101084047D01*
X144271190Y-100750714D02*
X144652142Y-100750714D01*
X144414047Y-100417380D02*
X144414047Y-101274523D01*
X144461666Y-101369761D01*
X144556904Y-101417380D01*
X144652142Y-101417380D01*
G04 #@! TO.C,Q2*
X131080714Y-89352380D02*
X131080714Y-88352380D01*
X131652142Y-89352380D01*
X131652142Y-88352380D01*
X132128333Y-88971428D02*
X132890238Y-88971428D01*
X133937857Y-89257142D02*
X133890238Y-89304761D01*
X133747380Y-89352380D01*
X133652142Y-89352380D01*
X133509285Y-89304761D01*
X133414047Y-89209523D01*
X133366428Y-89114285D01*
X133318809Y-88923809D01*
X133318809Y-88780952D01*
X133366428Y-88590476D01*
X133414047Y-88495238D01*
X133509285Y-88400000D01*
X133652142Y-88352380D01*
X133747380Y-88352380D01*
X133890238Y-88400000D01*
X133937857Y-88447619D01*
X134366428Y-89352380D02*
X134366428Y-88352380D01*
X134795000Y-89352380D02*
X134795000Y-88828571D01*
X134747380Y-88733333D01*
X134652142Y-88685714D01*
X134509285Y-88685714D01*
X134414047Y-88733333D01*
X134366428Y-88780952D01*
X135699761Y-89352380D02*
X135699761Y-88828571D01*
X135652142Y-88733333D01*
X135556904Y-88685714D01*
X135366428Y-88685714D01*
X135271190Y-88733333D01*
X135699761Y-89304761D02*
X135604523Y-89352380D01*
X135366428Y-89352380D01*
X135271190Y-89304761D01*
X135223571Y-89209523D01*
X135223571Y-89114285D01*
X135271190Y-89019047D01*
X135366428Y-88971428D01*
X135604523Y-88971428D01*
X135699761Y-88923809D01*
X136175952Y-88685714D02*
X136175952Y-89352380D01*
X136175952Y-88780952D02*
X136223571Y-88733333D01*
X136318809Y-88685714D01*
X136461666Y-88685714D01*
X136556904Y-88733333D01*
X136604523Y-88828571D01*
X136604523Y-89352380D01*
X137080714Y-88685714D02*
X137080714Y-89352380D01*
X137080714Y-88780952D02*
X137128333Y-88733333D01*
X137223571Y-88685714D01*
X137366428Y-88685714D01*
X137461666Y-88733333D01*
X137509285Y-88828571D01*
X137509285Y-89352380D01*
X138366428Y-89304761D02*
X138271190Y-89352380D01*
X138080714Y-89352380D01*
X137985476Y-89304761D01*
X137937857Y-89209523D01*
X137937857Y-88828571D01*
X137985476Y-88733333D01*
X138080714Y-88685714D01*
X138271190Y-88685714D01*
X138366428Y-88733333D01*
X138414047Y-88828571D01*
X138414047Y-88923809D01*
X137937857Y-89019047D01*
X138985476Y-89352380D02*
X138890238Y-89304761D01*
X138842619Y-89209523D01*
X138842619Y-88352380D01*
X139128333Y-89447619D02*
X139890238Y-89447619D01*
X140128333Y-89352380D02*
X140128333Y-88352380D01*
X140461666Y-89066666D01*
X140795000Y-88352380D01*
X140795000Y-89352380D01*
X141414047Y-89352380D02*
X141318809Y-89304761D01*
X141271190Y-89257142D01*
X141223571Y-89161904D01*
X141223571Y-88876190D01*
X141271190Y-88780952D01*
X141318809Y-88733333D01*
X141414047Y-88685714D01*
X141556904Y-88685714D01*
X141652142Y-88733333D01*
X141699761Y-88780952D01*
X141747380Y-88876190D01*
X141747380Y-89161904D01*
X141699761Y-89257142D01*
X141652142Y-89304761D01*
X141556904Y-89352380D01*
X141414047Y-89352380D01*
X142128333Y-89304761D02*
X142223571Y-89352380D01*
X142414047Y-89352380D01*
X142509285Y-89304761D01*
X142556904Y-89209523D01*
X142556904Y-89161904D01*
X142509285Y-89066666D01*
X142414047Y-89019047D01*
X142271190Y-89019047D01*
X142175952Y-88971428D01*
X142128333Y-88876190D01*
X142128333Y-88828571D01*
X142175952Y-88733333D01*
X142271190Y-88685714D01*
X142414047Y-88685714D01*
X142509285Y-88733333D01*
X142842619Y-88685714D02*
X143223571Y-88685714D01*
X142985476Y-89352380D02*
X142985476Y-88495238D01*
X143033095Y-88400000D01*
X143128333Y-88352380D01*
X143223571Y-88352380D01*
X143937857Y-89304761D02*
X143842619Y-89352380D01*
X143652142Y-89352380D01*
X143556904Y-89304761D01*
X143509285Y-89209523D01*
X143509285Y-88828571D01*
X143556904Y-88733333D01*
X143652142Y-88685714D01*
X143842619Y-88685714D01*
X143937857Y-88733333D01*
X143985476Y-88828571D01*
X143985476Y-88923809D01*
X143509285Y-89019047D01*
X144271190Y-88685714D02*
X144652142Y-88685714D01*
X144414047Y-88352380D02*
X144414047Y-89209523D01*
X144461666Y-89304761D01*
X144556904Y-89352380D01*
X144652142Y-89352380D01*
G04 #@! TO.C,C1*
X123698333Y-99417142D02*
X123650714Y-99464761D01*
X123507857Y-99512380D01*
X123412619Y-99512380D01*
X123269761Y-99464761D01*
X123174523Y-99369523D01*
X123126904Y-99274285D01*
X123079285Y-99083809D01*
X123079285Y-98940952D01*
X123126904Y-98750476D01*
X123174523Y-98655238D01*
X123269761Y-98560000D01*
X123412619Y-98512380D01*
X123507857Y-98512380D01*
X123650714Y-98560000D01*
X123698333Y-98607619D01*
X124650714Y-99512380D02*
X124079285Y-99512380D01*
X124365000Y-99512380D02*
X124365000Y-98512380D01*
X124269761Y-98655238D01*
X124174523Y-98750476D01*
X124079285Y-98798095D01*
G04 #@! TO.C,C3*
X120951333Y-78335142D02*
X120903714Y-78382761D01*
X120760857Y-78430380D01*
X120665619Y-78430380D01*
X120522761Y-78382761D01*
X120427523Y-78287523D01*
X120379904Y-78192285D01*
X120332285Y-78001809D01*
X120332285Y-77858952D01*
X120379904Y-77668476D01*
X120427523Y-77573238D01*
X120522761Y-77478000D01*
X120665619Y-77430380D01*
X120760857Y-77430380D01*
X120903714Y-77478000D01*
X120951333Y-77525619D01*
X121284666Y-77430380D02*
X121903714Y-77430380D01*
X121570380Y-77811333D01*
X121713238Y-77811333D01*
X121808476Y-77858952D01*
X121856095Y-77906571D01*
X121903714Y-78001809D01*
X121903714Y-78239904D01*
X121856095Y-78335142D01*
X121808476Y-78382761D01*
X121713238Y-78430380D01*
X121427523Y-78430380D01*
X121332285Y-78382761D01*
X121284666Y-78335142D01*
G04 #@! TO.C,C4*
X128201091Y-75917961D02*
X128136042Y-75935391D01*
X127988514Y-75905201D01*
X127906036Y-75857582D01*
X127806127Y-75744915D01*
X127771268Y-75614817D01*
X127777647Y-75508529D01*
X127831646Y-75319762D01*
X127903075Y-75196044D01*
X128039552Y-75054896D01*
X128128411Y-74996227D01*
X128258508Y-74961368D01*
X128406036Y-74991557D01*
X128488514Y-75039176D01*
X128588423Y-75151844D01*
X128605852Y-75216893D01*
X129229112Y-75851661D02*
X128895779Y-76429011D01*
X129213392Y-75402699D02*
X128650053Y-75902241D01*
X129186164Y-76211764D01*
G04 #@! TO.C,C5*
X125563333Y-109577142D02*
X125515714Y-109624761D01*
X125372857Y-109672380D01*
X125277619Y-109672380D01*
X125134761Y-109624761D01*
X125039523Y-109529523D01*
X124991904Y-109434285D01*
X124944285Y-109243809D01*
X124944285Y-109100952D01*
X124991904Y-108910476D01*
X125039523Y-108815238D01*
X125134761Y-108720000D01*
X125277619Y-108672380D01*
X125372857Y-108672380D01*
X125515714Y-108720000D01*
X125563333Y-108767619D01*
X126468095Y-108672380D02*
X125991904Y-108672380D01*
X125944285Y-109148571D01*
X125991904Y-109100952D01*
X126087142Y-109053333D01*
X126325238Y-109053333D01*
X126420476Y-109100952D01*
X126468095Y-109148571D01*
X126515714Y-109243809D01*
X126515714Y-109481904D01*
X126468095Y-109577142D01*
X126420476Y-109624761D01*
X126325238Y-109672380D01*
X126087142Y-109672380D01*
X125991904Y-109624761D01*
X125944285Y-109577142D01*
G04 #@! TO.C,D2*
X150817017Y-106659371D02*
X151583062Y-106016583D01*
X151736106Y-106198975D01*
X151791455Y-106339018D01*
X151779716Y-106473193D01*
X151737368Y-106570889D01*
X151622064Y-106729803D01*
X151512629Y-106821630D01*
X151336107Y-106907587D01*
X151232541Y-106932327D01*
X151098367Y-106920588D01*
X150970062Y-106841762D01*
X150817017Y-106659371D01*
X152122284Y-106807367D02*
X152189371Y-106813236D01*
X152287067Y-106855584D01*
X152440112Y-107037976D01*
X152464851Y-107141541D01*
X152458982Y-107208628D01*
X152416634Y-107306325D01*
X152343678Y-107367542D01*
X152203634Y-107422891D01*
X151398587Y-107352458D01*
X151796503Y-107826676D01*
G04 #@! TO.C,D4*
X150817017Y-102341371D02*
X151583062Y-101698583D01*
X151736106Y-101880975D01*
X151791455Y-102021018D01*
X151779716Y-102155193D01*
X151737368Y-102252889D01*
X151622064Y-102411803D01*
X151512629Y-102503630D01*
X151336107Y-102589587D01*
X151232541Y-102614327D01*
X151098367Y-102602588D01*
X150970062Y-102523762D01*
X150817017Y-102341371D01*
X152245981Y-103007195D02*
X151735285Y-103435720D01*
X152384763Y-102579932D02*
X151684544Y-102856674D01*
X152082460Y-103330892D01*
G04 #@! TO.C,D6*
X112037904Y-102052380D02*
X112037904Y-101052380D01*
X112276000Y-101052380D01*
X112418857Y-101100000D01*
X112514095Y-101195238D01*
X112561714Y-101290476D01*
X112609333Y-101480952D01*
X112609333Y-101623809D01*
X112561714Y-101814285D01*
X112514095Y-101909523D01*
X112418857Y-102004761D01*
X112276000Y-102052380D01*
X112037904Y-102052380D01*
X113466476Y-101052380D02*
X113276000Y-101052380D01*
X113180761Y-101100000D01*
X113133142Y-101147619D01*
X113037904Y-101290476D01*
X112990285Y-101480952D01*
X112990285Y-101861904D01*
X113037904Y-101957142D01*
X113085523Y-102004761D01*
X113180761Y-102052380D01*
X113371238Y-102052380D01*
X113466476Y-102004761D01*
X113514095Y-101957142D01*
X113561714Y-101861904D01*
X113561714Y-101623809D01*
X113514095Y-101528571D01*
X113466476Y-101480952D01*
X113371238Y-101433333D01*
X113180761Y-101433333D01*
X113085523Y-101480952D01*
X113037904Y-101528571D01*
X112990285Y-101623809D01*
G04 #@! TO.C,J1*
X149465333Y-75246666D02*
X149465333Y-74546666D01*
X149732000Y-74546666D01*
X149798666Y-74580000D01*
X149832000Y-74613333D01*
X149865333Y-74680000D01*
X149865333Y-74780000D01*
X149832000Y-74846666D01*
X149798666Y-74880000D01*
X149732000Y-74913333D01*
X149465333Y-74913333D01*
X150265333Y-75246666D02*
X150198666Y-75213333D01*
X150165333Y-75180000D01*
X150132000Y-75113333D01*
X150132000Y-74913333D01*
X150165333Y-74846666D01*
X150198666Y-74813333D01*
X150265333Y-74780000D01*
X150365333Y-74780000D01*
X150432000Y-74813333D01*
X150465333Y-74846666D01*
X150498666Y-74913333D01*
X150498666Y-75113333D01*
X150465333Y-75180000D01*
X150432000Y-75213333D01*
X150365333Y-75246666D01*
X150265333Y-75246666D01*
X150732000Y-74780000D02*
X150865333Y-75246666D01*
X150998666Y-74913333D01*
X151132000Y-75246666D01*
X151265333Y-74780000D01*
X151798666Y-75213333D02*
X151732000Y-75246666D01*
X151598666Y-75246666D01*
X151532000Y-75213333D01*
X151498666Y-75146666D01*
X151498666Y-74880000D01*
X151532000Y-74813333D01*
X151598666Y-74780000D01*
X151732000Y-74780000D01*
X151798666Y-74813333D01*
X151832000Y-74880000D01*
X151832000Y-74946666D01*
X151498666Y-75013333D01*
X152132000Y-75246666D02*
X152132000Y-74780000D01*
X152132000Y-74913333D02*
X152165333Y-74846666D01*
X152198666Y-74813333D01*
X152265333Y-74780000D01*
X152332000Y-74780000D01*
X153065333Y-75213333D02*
X153165333Y-75246666D01*
X153332000Y-75246666D01*
X153398666Y-75213333D01*
X153432000Y-75180000D01*
X153465333Y-75113333D01*
X153465333Y-75046666D01*
X153432000Y-74980000D01*
X153398666Y-74946666D01*
X153332000Y-74913333D01*
X153198666Y-74880000D01*
X153132000Y-74846666D01*
X153098666Y-74813333D01*
X153065333Y-74746666D01*
X153065333Y-74680000D01*
X153098666Y-74613333D01*
X153132000Y-74580000D01*
X153198666Y-74546666D01*
X153365333Y-74546666D01*
X153465333Y-74580000D01*
X154065333Y-74780000D02*
X154065333Y-75246666D01*
X153765333Y-74780000D02*
X153765333Y-75146666D01*
X153798666Y-75213333D01*
X153865333Y-75246666D01*
X153965333Y-75246666D01*
X154032000Y-75213333D01*
X154065333Y-75180000D01*
X154398666Y-74780000D02*
X154398666Y-75480000D01*
X154398666Y-74813333D02*
X154465333Y-74780000D01*
X154598666Y-74780000D01*
X154665333Y-74813333D01*
X154698666Y-74846666D01*
X154732000Y-74913333D01*
X154732000Y-75113333D01*
X154698666Y-75180000D01*
X154665333Y-75213333D01*
X154598666Y-75246666D01*
X154465333Y-75246666D01*
X154398666Y-75213333D01*
X155032000Y-74780000D02*
X155032000Y-75480000D01*
X155032000Y-74813333D02*
X155098666Y-74780000D01*
X155232000Y-74780000D01*
X155298666Y-74813333D01*
X155332000Y-74846666D01*
X155365333Y-74913333D01*
X155365333Y-75113333D01*
X155332000Y-75180000D01*
X155298666Y-75213333D01*
X155232000Y-75246666D01*
X155098666Y-75246666D01*
X155032000Y-75213333D01*
X155765333Y-75246666D02*
X155698666Y-75213333D01*
X155665333Y-75146666D01*
X155665333Y-74546666D01*
X155965333Y-74780000D02*
X156132000Y-75246666D01*
X156298666Y-74780000D02*
X156132000Y-75246666D01*
X156065333Y-75413333D01*
X156032000Y-75446666D01*
X155965333Y-75480000D01*
X157098666Y-75246666D02*
X157098666Y-74546666D01*
X157432000Y-74780000D02*
X157432000Y-75246666D01*
X157432000Y-74846666D02*
X157465333Y-74813333D01*
X157532000Y-74780000D01*
X157632000Y-74780000D01*
X157698666Y-74813333D01*
X157732000Y-74880000D01*
X157732000Y-75246666D01*
X158065333Y-74780000D02*
X158065333Y-75480000D01*
X158065333Y-74813333D02*
X158132000Y-74780000D01*
X158265333Y-74780000D01*
X158332000Y-74813333D01*
X158365333Y-74846666D01*
X158398666Y-74913333D01*
X158398666Y-75113333D01*
X158365333Y-75180000D01*
X158332000Y-75213333D01*
X158265333Y-75246666D01*
X158132000Y-75246666D01*
X158065333Y-75213333D01*
X158998666Y-74780000D02*
X158998666Y-75246666D01*
X158698666Y-74780000D02*
X158698666Y-75146666D01*
X158732000Y-75213333D01*
X158798666Y-75246666D01*
X158898666Y-75246666D01*
X158965333Y-75213333D01*
X158998666Y-75180000D01*
X159232000Y-74780000D02*
X159498666Y-74780000D01*
X159332000Y-74546666D02*
X159332000Y-75146666D01*
X159365333Y-75213333D01*
X159432000Y-75246666D01*
X159498666Y-75246666D01*
G04 #@! TO.C,J2*
X100211238Y-112720380D02*
X100211238Y-111720380D01*
X100211238Y-112196571D02*
X100782666Y-112196571D01*
X100782666Y-112720380D02*
X100782666Y-111720380D01*
X101401714Y-112720380D02*
X101306476Y-112672761D01*
X101258857Y-112625142D01*
X101211238Y-112529904D01*
X101211238Y-112244190D01*
X101258857Y-112148952D01*
X101306476Y-112101333D01*
X101401714Y-112053714D01*
X101544571Y-112053714D01*
X101639809Y-112101333D01*
X101687428Y-112148952D01*
X101735047Y-112244190D01*
X101735047Y-112529904D01*
X101687428Y-112625142D01*
X101639809Y-112672761D01*
X101544571Y-112720380D01*
X101401714Y-112720380D01*
X102020761Y-112053714D02*
X102401714Y-112053714D01*
X102163619Y-111720380D02*
X102163619Y-112577523D01*
X102211238Y-112672761D01*
X102306476Y-112720380D01*
X102401714Y-112720380D01*
X103068380Y-112196571D02*
X103211238Y-112244190D01*
X103258857Y-112291809D01*
X103306476Y-112387047D01*
X103306476Y-112529904D01*
X103258857Y-112625142D01*
X103211238Y-112672761D01*
X103116000Y-112720380D01*
X102735047Y-112720380D01*
X102735047Y-111720380D01*
X103068380Y-111720380D01*
X103163619Y-111768000D01*
X103211238Y-111815619D01*
X103258857Y-111910857D01*
X103258857Y-112006095D01*
X103211238Y-112101333D01*
X103163619Y-112148952D01*
X103068380Y-112196571D01*
X102735047Y-112196571D01*
X104116000Y-112672761D02*
X104020761Y-112720380D01*
X103830285Y-112720380D01*
X103735047Y-112672761D01*
X103687428Y-112577523D01*
X103687428Y-112196571D01*
X103735047Y-112101333D01*
X103830285Y-112053714D01*
X104020761Y-112053714D01*
X104116000Y-112101333D01*
X104163619Y-112196571D01*
X104163619Y-112291809D01*
X103687428Y-112387047D01*
X105020761Y-112720380D02*
X105020761Y-111720380D01*
X105020761Y-112672761D02*
X104925523Y-112720380D01*
X104735047Y-112720380D01*
X104639809Y-112672761D01*
X104592190Y-112625142D01*
X104544571Y-112529904D01*
X104544571Y-112244190D01*
X104592190Y-112148952D01*
X104639809Y-112101333D01*
X104735047Y-112053714D01*
X104925523Y-112053714D01*
X105020761Y-112101333D01*
G04 #@! TO.C,J3*
X166940666Y-89313333D02*
X166240666Y-89313333D01*
X166574000Y-89313333D02*
X166574000Y-88913333D01*
X166940666Y-88913333D02*
X166240666Y-88913333D01*
X166940666Y-88480000D02*
X166907333Y-88546666D01*
X166874000Y-88580000D01*
X166807333Y-88613333D01*
X166607333Y-88613333D01*
X166540666Y-88580000D01*
X166507333Y-88546666D01*
X166474000Y-88480000D01*
X166474000Y-88380000D01*
X166507333Y-88313333D01*
X166540666Y-88280000D01*
X166607333Y-88246666D01*
X166807333Y-88246666D01*
X166874000Y-88280000D01*
X166907333Y-88313333D01*
X166940666Y-88380000D01*
X166940666Y-88480000D01*
X166474000Y-88046666D02*
X166474000Y-87780000D01*
X166240666Y-87946666D02*
X166840666Y-87946666D01*
X166907333Y-87913333D01*
X166940666Y-87846666D01*
X166940666Y-87780000D01*
X166574000Y-87313333D02*
X166607333Y-87213333D01*
X166640666Y-87180000D01*
X166707333Y-87146666D01*
X166807333Y-87146666D01*
X166874000Y-87180000D01*
X166907333Y-87213333D01*
X166940666Y-87280000D01*
X166940666Y-87546666D01*
X166240666Y-87546666D01*
X166240666Y-87313333D01*
X166274000Y-87246666D01*
X166307333Y-87213333D01*
X166374000Y-87180000D01*
X166440666Y-87180000D01*
X166507333Y-87213333D01*
X166540666Y-87246666D01*
X166574000Y-87313333D01*
X166574000Y-87546666D01*
X166907333Y-86580000D02*
X166940666Y-86646666D01*
X166940666Y-86780000D01*
X166907333Y-86846666D01*
X166840666Y-86880000D01*
X166574000Y-86880000D01*
X166507333Y-86846666D01*
X166474000Y-86780000D01*
X166474000Y-86646666D01*
X166507333Y-86580000D01*
X166574000Y-86546666D01*
X166640666Y-86546666D01*
X166707333Y-86880000D01*
X166940666Y-85946666D02*
X166240666Y-85946666D01*
X166907333Y-85946666D02*
X166940666Y-86013333D01*
X166940666Y-86146666D01*
X166907333Y-86213333D01*
X166874000Y-86246666D01*
X166807333Y-86280000D01*
X166607333Y-86280000D01*
X166540666Y-86246666D01*
X166507333Y-86213333D01*
X166474000Y-86146666D01*
X166474000Y-86013333D01*
X166507333Y-85946666D01*
G04 #@! TO.C,J4*
X166940666Y-98170000D02*
X166240666Y-98170000D01*
X166574000Y-98170000D02*
X166574000Y-97770000D01*
X166940666Y-97770000D02*
X166240666Y-97770000D01*
X166940666Y-97336666D02*
X166907333Y-97403333D01*
X166874000Y-97436666D01*
X166807333Y-97470000D01*
X166607333Y-97470000D01*
X166540666Y-97436666D01*
X166507333Y-97403333D01*
X166474000Y-97336666D01*
X166474000Y-97236666D01*
X166507333Y-97170000D01*
X166540666Y-97136666D01*
X166607333Y-97103333D01*
X166807333Y-97103333D01*
X166874000Y-97136666D01*
X166907333Y-97170000D01*
X166940666Y-97236666D01*
X166940666Y-97336666D01*
X166474000Y-96903333D02*
X166474000Y-96636666D01*
X166240666Y-96803333D02*
X166840666Y-96803333D01*
X166907333Y-96770000D01*
X166940666Y-96703333D01*
X166940666Y-96636666D01*
X166907333Y-96136666D02*
X166940666Y-96203333D01*
X166940666Y-96336666D01*
X166907333Y-96403333D01*
X166840666Y-96436666D01*
X166574000Y-96436666D01*
X166507333Y-96403333D01*
X166474000Y-96336666D01*
X166474000Y-96203333D01*
X166507333Y-96136666D01*
X166574000Y-96103333D01*
X166640666Y-96103333D01*
X166707333Y-96436666D01*
X166474000Y-95803333D02*
X166940666Y-95803333D01*
X166540666Y-95803333D02*
X166507333Y-95770000D01*
X166474000Y-95703333D01*
X166474000Y-95603333D01*
X166507333Y-95536666D01*
X166574000Y-95503333D01*
X166940666Y-95503333D01*
X166940666Y-94870000D02*
X166240666Y-94870000D01*
X166907333Y-94870000D02*
X166940666Y-94936666D01*
X166940666Y-95070000D01*
X166907333Y-95136666D01*
X166874000Y-95170000D01*
X166807333Y-95203333D01*
X166607333Y-95203333D01*
X166540666Y-95170000D01*
X166507333Y-95136666D01*
X166474000Y-95070000D01*
X166474000Y-94936666D01*
X166507333Y-94870000D01*
G04 #@! TO.C,J5*
X109633047Y-112720380D02*
X109633047Y-111720380D01*
X109633047Y-112196571D02*
X110204476Y-112196571D01*
X110204476Y-112720380D02*
X110204476Y-111720380D01*
X110823523Y-112720380D02*
X110728285Y-112672761D01*
X110680666Y-112625142D01*
X110633047Y-112529904D01*
X110633047Y-112244190D01*
X110680666Y-112148952D01*
X110728285Y-112101333D01*
X110823523Y-112053714D01*
X110966380Y-112053714D01*
X111061619Y-112101333D01*
X111109238Y-112148952D01*
X111156857Y-112244190D01*
X111156857Y-112529904D01*
X111109238Y-112625142D01*
X111061619Y-112672761D01*
X110966380Y-112720380D01*
X110823523Y-112720380D01*
X111442571Y-112053714D02*
X111823523Y-112053714D01*
X111585428Y-111720380D02*
X111585428Y-112577523D01*
X111633047Y-112672761D01*
X111728285Y-112720380D01*
X111823523Y-112720380D01*
X112156857Y-112196571D02*
X112490190Y-112196571D01*
X112633047Y-112720380D02*
X112156857Y-112720380D01*
X112156857Y-111720380D01*
X112633047Y-111720380D01*
X113061619Y-112053714D02*
X113061619Y-112720380D01*
X113061619Y-112148952D02*
X113109238Y-112101333D01*
X113204476Y-112053714D01*
X113347333Y-112053714D01*
X113442571Y-112101333D01*
X113490190Y-112196571D01*
X113490190Y-112720380D01*
X114394952Y-112720380D02*
X114394952Y-111720380D01*
X114394952Y-112672761D02*
X114299714Y-112720380D01*
X114109238Y-112720380D01*
X114014000Y-112672761D01*
X113966380Y-112625142D01*
X113918761Y-112529904D01*
X113918761Y-112244190D01*
X113966380Y-112148952D01*
X114014000Y-112101333D01*
X114109238Y-112053714D01*
X114299714Y-112053714D01*
X114394952Y-112101333D01*
G04 #@! TO.C,Q1*
X131080714Y-77287380D02*
X131080714Y-76287380D01*
X131652142Y-77287380D01*
X131652142Y-76287380D01*
X132128333Y-76906428D02*
X132890238Y-76906428D01*
X133937857Y-77192142D02*
X133890238Y-77239761D01*
X133747380Y-77287380D01*
X133652142Y-77287380D01*
X133509285Y-77239761D01*
X133414047Y-77144523D01*
X133366428Y-77049285D01*
X133318809Y-76858809D01*
X133318809Y-76715952D01*
X133366428Y-76525476D01*
X133414047Y-76430238D01*
X133509285Y-76335000D01*
X133652142Y-76287380D01*
X133747380Y-76287380D01*
X133890238Y-76335000D01*
X133937857Y-76382619D01*
X134366428Y-77287380D02*
X134366428Y-76287380D01*
X134795000Y-77287380D02*
X134795000Y-76763571D01*
X134747380Y-76668333D01*
X134652142Y-76620714D01*
X134509285Y-76620714D01*
X134414047Y-76668333D01*
X134366428Y-76715952D01*
X135699761Y-77287380D02*
X135699761Y-76763571D01*
X135652142Y-76668333D01*
X135556904Y-76620714D01*
X135366428Y-76620714D01*
X135271190Y-76668333D01*
X135699761Y-77239761D02*
X135604523Y-77287380D01*
X135366428Y-77287380D01*
X135271190Y-77239761D01*
X135223571Y-77144523D01*
X135223571Y-77049285D01*
X135271190Y-76954047D01*
X135366428Y-76906428D01*
X135604523Y-76906428D01*
X135699761Y-76858809D01*
X136175952Y-76620714D02*
X136175952Y-77287380D01*
X136175952Y-76715952D02*
X136223571Y-76668333D01*
X136318809Y-76620714D01*
X136461666Y-76620714D01*
X136556904Y-76668333D01*
X136604523Y-76763571D01*
X136604523Y-77287380D01*
X137080714Y-76620714D02*
X137080714Y-77287380D01*
X137080714Y-76715952D02*
X137128333Y-76668333D01*
X137223571Y-76620714D01*
X137366428Y-76620714D01*
X137461666Y-76668333D01*
X137509285Y-76763571D01*
X137509285Y-77287380D01*
X138366428Y-77239761D02*
X138271190Y-77287380D01*
X138080714Y-77287380D01*
X137985476Y-77239761D01*
X137937857Y-77144523D01*
X137937857Y-76763571D01*
X137985476Y-76668333D01*
X138080714Y-76620714D01*
X138271190Y-76620714D01*
X138366428Y-76668333D01*
X138414047Y-76763571D01*
X138414047Y-76858809D01*
X137937857Y-76954047D01*
X138985476Y-77287380D02*
X138890238Y-77239761D01*
X138842619Y-77144523D01*
X138842619Y-76287380D01*
X139128333Y-77382619D02*
X139890238Y-77382619D01*
X140128333Y-77287380D02*
X140128333Y-76287380D01*
X140461666Y-77001666D01*
X140795000Y-76287380D01*
X140795000Y-77287380D01*
X141414047Y-77287380D02*
X141318809Y-77239761D01*
X141271190Y-77192142D01*
X141223571Y-77096904D01*
X141223571Y-76811190D01*
X141271190Y-76715952D01*
X141318809Y-76668333D01*
X141414047Y-76620714D01*
X141556904Y-76620714D01*
X141652142Y-76668333D01*
X141699761Y-76715952D01*
X141747380Y-76811190D01*
X141747380Y-77096904D01*
X141699761Y-77192142D01*
X141652142Y-77239761D01*
X141556904Y-77287380D01*
X141414047Y-77287380D01*
X142128333Y-77239761D02*
X142223571Y-77287380D01*
X142414047Y-77287380D01*
X142509285Y-77239761D01*
X142556904Y-77144523D01*
X142556904Y-77096904D01*
X142509285Y-77001666D01*
X142414047Y-76954047D01*
X142271190Y-76954047D01*
X142175952Y-76906428D01*
X142128333Y-76811190D01*
X142128333Y-76763571D01*
X142175952Y-76668333D01*
X142271190Y-76620714D01*
X142414047Y-76620714D01*
X142509285Y-76668333D01*
X142842619Y-76620714D02*
X143223571Y-76620714D01*
X142985476Y-77287380D02*
X142985476Y-76430238D01*
X143033095Y-76335000D01*
X143128333Y-76287380D01*
X143223571Y-76287380D01*
X143937857Y-77239761D02*
X143842619Y-77287380D01*
X143652142Y-77287380D01*
X143556904Y-77239761D01*
X143509285Y-77144523D01*
X143509285Y-76763571D01*
X143556904Y-76668333D01*
X143652142Y-76620714D01*
X143842619Y-76620714D01*
X143937857Y-76668333D01*
X143985476Y-76763571D01*
X143985476Y-76858809D01*
X143509285Y-76954047D01*
X144271190Y-76620714D02*
X144652142Y-76620714D01*
X144414047Y-76287380D02*
X144414047Y-77144523D01*
X144461666Y-77239761D01*
X144556904Y-77287380D01*
X144652142Y-77287380D01*
G04 #@! TO.C,U1*
X101600095Y-90511380D02*
X101600095Y-91320904D01*
X101647714Y-91416142D01*
X101695333Y-91463761D01*
X101790571Y-91511380D01*
X101981047Y-91511380D01*
X102076285Y-91463761D01*
X102123904Y-91416142D01*
X102171523Y-91320904D01*
X102171523Y-90511380D01*
X103171523Y-91511380D02*
X102600095Y-91511380D01*
X102885809Y-91511380D02*
X102885809Y-90511380D01*
X102790571Y-90654238D01*
X102695333Y-90749476D01*
X102600095Y-90797095D01*
G04 #@! TO.C,U2*
X123063095Y-90892380D02*
X123063095Y-91701904D01*
X123110714Y-91797142D01*
X123158333Y-91844761D01*
X123253571Y-91892380D01*
X123444047Y-91892380D01*
X123539285Y-91844761D01*
X123586904Y-91797142D01*
X123634523Y-91701904D01*
X123634523Y-90892380D01*
X124063095Y-90987619D02*
X124110714Y-90940000D01*
X124205952Y-90892380D01*
X124444047Y-90892380D01*
X124539285Y-90940000D01*
X124586904Y-90987619D01*
X124634523Y-91082857D01*
X124634523Y-91178095D01*
X124586904Y-91320952D01*
X124015476Y-91892380D01*
X124634523Y-91892380D01*
G04 #@! TO.C,U3*
X112014095Y-90384380D02*
X112014095Y-91193904D01*
X112061714Y-91289142D01*
X112109333Y-91336761D01*
X112204571Y-91384380D01*
X112395047Y-91384380D01*
X112490285Y-91336761D01*
X112537904Y-91289142D01*
X112585523Y-91193904D01*
X112585523Y-90384380D01*
X112966476Y-90384380D02*
X113585523Y-90384380D01*
X113252190Y-90765333D01*
X113395047Y-90765333D01*
X113490285Y-90812952D01*
X113537904Y-90860571D01*
X113585523Y-90955809D01*
X113585523Y-91193904D01*
X113537904Y-91289142D01*
X113490285Y-91336761D01*
X113395047Y-91384380D01*
X113109333Y-91384380D01*
X113014095Y-91336761D01*
X112966476Y-91289142D01*
G04 #@! TO.C,D3*
X164790380Y-88749095D02*
X163790380Y-88749095D01*
X163790380Y-88511000D01*
X163838000Y-88368142D01*
X163933238Y-88272904D01*
X164028476Y-88225285D01*
X164218952Y-88177666D01*
X164361809Y-88177666D01*
X164552285Y-88225285D01*
X164647523Y-88272904D01*
X164742761Y-88368142D01*
X164790380Y-88511000D01*
X164790380Y-88749095D01*
X163790380Y-87844333D02*
X163790380Y-87225285D01*
X164171333Y-87558619D01*
X164171333Y-87415761D01*
X164218952Y-87320523D01*
X164266571Y-87272904D01*
X164361809Y-87225285D01*
X164599904Y-87225285D01*
X164695142Y-87272904D01*
X164742761Y-87320523D01*
X164790380Y-87415761D01*
X164790380Y-87701476D01*
X164742761Y-87796714D01*
X164695142Y-87844333D01*
G04 #@! TO.C,D5*
X164790380Y-97639095D02*
X163790380Y-97639095D01*
X163790380Y-97401000D01*
X163838000Y-97258142D01*
X163933238Y-97162904D01*
X164028476Y-97115285D01*
X164218952Y-97067666D01*
X164361809Y-97067666D01*
X164552285Y-97115285D01*
X164647523Y-97162904D01*
X164742761Y-97258142D01*
X164790380Y-97401000D01*
X164790380Y-97639095D01*
X163790380Y-96162904D02*
X163790380Y-96639095D01*
X164266571Y-96686714D01*
X164218952Y-96639095D01*
X164171333Y-96543857D01*
X164171333Y-96305761D01*
X164218952Y-96210523D01*
X164266571Y-96162904D01*
X164361809Y-96115285D01*
X164599904Y-96115285D01*
X164695142Y-96162904D01*
X164742761Y-96210523D01*
X164790380Y-96305761D01*
X164790380Y-96543857D01*
X164742761Y-96639095D01*
X164695142Y-96686714D01*
G04 #@! TO.C,R1*
X104846380Y-79414666D02*
X104370190Y-79748000D01*
X104846380Y-79986095D02*
X103846380Y-79986095D01*
X103846380Y-79605142D01*
X103894000Y-79509904D01*
X103941619Y-79462285D01*
X104036857Y-79414666D01*
X104179714Y-79414666D01*
X104274952Y-79462285D01*
X104322571Y-79509904D01*
X104370190Y-79605142D01*
X104370190Y-79986095D01*
X104846380Y-78462285D02*
X104846380Y-79033714D01*
X104846380Y-78748000D02*
X103846380Y-78748000D01*
X103989238Y-78843238D01*
X104084476Y-78938476D01*
X104132095Y-79033714D01*
G04 #@! TO.C,R2*
X102195333Y-85034380D02*
X101862000Y-84558190D01*
X101623904Y-85034380D02*
X101623904Y-84034380D01*
X102004857Y-84034380D01*
X102100095Y-84082000D01*
X102147714Y-84129619D01*
X102195333Y-84224857D01*
X102195333Y-84367714D01*
X102147714Y-84462952D01*
X102100095Y-84510571D01*
X102004857Y-84558190D01*
X101623904Y-84558190D01*
X102576285Y-84129619D02*
X102623904Y-84082000D01*
X102719142Y-84034380D01*
X102957238Y-84034380D01*
X103052476Y-84082000D01*
X103100095Y-84129619D01*
X103147714Y-84224857D01*
X103147714Y-84320095D01*
X103100095Y-84462952D01*
X102528666Y-85034380D01*
X103147714Y-85034380D01*
G04 #@! TO.C,R3*
X102068333Y-96972380D02*
X101735000Y-96496190D01*
X101496904Y-96972380D02*
X101496904Y-95972380D01*
X101877857Y-95972380D01*
X101973095Y-96020000D01*
X102020714Y-96067619D01*
X102068333Y-96162857D01*
X102068333Y-96305714D01*
X102020714Y-96400952D01*
X101973095Y-96448571D01*
X101877857Y-96496190D01*
X101496904Y-96496190D01*
X102401666Y-95972380D02*
X103020714Y-95972380D01*
X102687380Y-96353333D01*
X102830238Y-96353333D01*
X102925476Y-96400952D01*
X102973095Y-96448571D01*
X103020714Y-96543809D01*
X103020714Y-96781904D01*
X102973095Y-96877142D01*
X102925476Y-96924761D01*
X102830238Y-96972380D01*
X102544523Y-96972380D01*
X102449285Y-96924761D01*
X102401666Y-96877142D01*
G04 #@! TO.C,R4*
X156297333Y-108148380D02*
X155964000Y-107672190D01*
X155725904Y-108148380D02*
X155725904Y-107148380D01*
X156106857Y-107148380D01*
X156202095Y-107196000D01*
X156249714Y-107243619D01*
X156297333Y-107338857D01*
X156297333Y-107481714D01*
X156249714Y-107576952D01*
X156202095Y-107624571D01*
X156106857Y-107672190D01*
X155725904Y-107672190D01*
X157154476Y-107481714D02*
X157154476Y-108148380D01*
X156916380Y-107100761D02*
X156678285Y-107815047D01*
X157297333Y-107815047D01*
G04 #@! TO.C,R5*
X156297333Y-103830380D02*
X155964000Y-103354190D01*
X155725904Y-103830380D02*
X155725904Y-102830380D01*
X156106857Y-102830380D01*
X156202095Y-102878000D01*
X156249714Y-102925619D01*
X156297333Y-103020857D01*
X156297333Y-103163714D01*
X156249714Y-103258952D01*
X156202095Y-103306571D01*
X156106857Y-103354190D01*
X155725904Y-103354190D01*
X157202095Y-102830380D02*
X156725904Y-102830380D01*
X156678285Y-103306571D01*
X156725904Y-103258952D01*
X156821142Y-103211333D01*
X157059238Y-103211333D01*
X157154476Y-103258952D01*
X157202095Y-103306571D01*
X157249714Y-103401809D01*
X157249714Y-103639904D01*
X157202095Y-103735142D01*
X157154476Y-103782761D01*
X157059238Y-103830380D01*
X156821142Y-103830380D01*
X156725904Y-103782761D01*
X156678285Y-103735142D01*
G04 #@! TO.C,R6*
X115133380Y-79541666D02*
X114657190Y-79875000D01*
X115133380Y-80113095D02*
X114133380Y-80113095D01*
X114133380Y-79732142D01*
X114181000Y-79636904D01*
X114228619Y-79589285D01*
X114323857Y-79541666D01*
X114466714Y-79541666D01*
X114561952Y-79589285D01*
X114609571Y-79636904D01*
X114657190Y-79732142D01*
X114657190Y-80113095D01*
X114133380Y-78684523D02*
X114133380Y-78875000D01*
X114181000Y-78970238D01*
X114228619Y-79017857D01*
X114371476Y-79113095D01*
X114561952Y-79160714D01*
X114942904Y-79160714D01*
X115038142Y-79113095D01*
X115085761Y-79065476D01*
X115133380Y-78970238D01*
X115133380Y-78779761D01*
X115085761Y-78684523D01*
X115038142Y-78636904D01*
X114942904Y-78589285D01*
X114704809Y-78589285D01*
X114609571Y-78636904D01*
X114561952Y-78684523D01*
X114514333Y-78779761D01*
X114514333Y-78970238D01*
X114561952Y-79065476D01*
X114609571Y-79113095D01*
X114704809Y-79160714D01*
G04 #@! TO.C,R7*
X112609333Y-85034380D02*
X112276000Y-84558190D01*
X112037904Y-85034380D02*
X112037904Y-84034380D01*
X112418857Y-84034380D01*
X112514095Y-84082000D01*
X112561714Y-84129619D01*
X112609333Y-84224857D01*
X112609333Y-84367714D01*
X112561714Y-84462952D01*
X112514095Y-84510571D01*
X112418857Y-84558190D01*
X112037904Y-84558190D01*
X112942666Y-84034380D02*
X113609333Y-84034380D01*
X113180761Y-85034380D01*
G04 #@! TO.C,R8*
X112228333Y-96972380D02*
X111895000Y-96496190D01*
X111656904Y-96972380D02*
X111656904Y-95972380D01*
X112037857Y-95972380D01*
X112133095Y-96020000D01*
X112180714Y-96067619D01*
X112228333Y-96162857D01*
X112228333Y-96305714D01*
X112180714Y-96400952D01*
X112133095Y-96448571D01*
X112037857Y-96496190D01*
X111656904Y-96496190D01*
X112799761Y-96400952D02*
X112704523Y-96353333D01*
X112656904Y-96305714D01*
X112609285Y-96210476D01*
X112609285Y-96162857D01*
X112656904Y-96067619D01*
X112704523Y-96020000D01*
X112799761Y-95972380D01*
X112990238Y-95972380D01*
X113085476Y-96020000D01*
X113133095Y-96067619D01*
X113180714Y-96162857D01*
X113180714Y-96210476D01*
X113133095Y-96305714D01*
X113085476Y-96353333D01*
X112990238Y-96400952D01*
X112799761Y-96400952D01*
X112704523Y-96448571D01*
X112656904Y-96496190D01*
X112609285Y-96591428D01*
X112609285Y-96781904D01*
X112656904Y-96877142D01*
X112704523Y-96924761D01*
X112799761Y-96972380D01*
X112990238Y-96972380D01*
X113085476Y-96924761D01*
X113133095Y-96877142D01*
X113180714Y-96781904D01*
X113180714Y-96591428D01*
X113133095Y-96496190D01*
X113085476Y-96448571D01*
X112990238Y-96400952D01*
G04 #@! TO.C,J7*
X107307428Y-74947428D02*
X107307428Y-74347428D01*
X107307428Y-74633142D02*
X107650285Y-74633142D01*
X107650285Y-74947428D02*
X107650285Y-74347428D01*
X108021714Y-74947428D02*
X107964571Y-74918857D01*
X107936000Y-74890285D01*
X107907428Y-74833142D01*
X107907428Y-74661714D01*
X107936000Y-74604571D01*
X107964571Y-74576000D01*
X108021714Y-74547428D01*
X108107428Y-74547428D01*
X108164571Y-74576000D01*
X108193142Y-74604571D01*
X108221714Y-74661714D01*
X108221714Y-74833142D01*
X108193142Y-74890285D01*
X108164571Y-74918857D01*
X108107428Y-74947428D01*
X108021714Y-74947428D01*
X108393142Y-74547428D02*
X108621714Y-74547428D01*
X108478857Y-74347428D02*
X108478857Y-74861714D01*
X108507428Y-74918857D01*
X108564571Y-74947428D01*
X108621714Y-74947428D01*
X108821714Y-74633142D02*
X109021714Y-74633142D01*
X109107428Y-74947428D02*
X108821714Y-74947428D01*
X108821714Y-74347428D01*
X109107428Y-74347428D01*
X109364571Y-74547428D02*
X109364571Y-74947428D01*
X109364571Y-74604571D02*
X109393142Y-74576000D01*
X109450285Y-74547428D01*
X109536000Y-74547428D01*
X109593142Y-74576000D01*
X109621714Y-74633142D01*
X109621714Y-74947428D01*
X110164571Y-74947428D02*
X110164571Y-74347428D01*
X110164571Y-74918857D02*
X110107428Y-74947428D01*
X109993142Y-74947428D01*
X109936000Y-74918857D01*
X109907428Y-74890285D01*
X109878857Y-74833142D01*
X109878857Y-74661714D01*
X109907428Y-74604571D01*
X109936000Y-74576000D01*
X109993142Y-74547428D01*
X110107428Y-74547428D01*
X110164571Y-74576000D01*
X110307428Y-75004571D02*
X110764571Y-75004571D01*
X111164571Y-74947428D02*
X111164571Y-74347428D01*
X111164571Y-74918857D02*
X111107428Y-74947428D01*
X110993142Y-74947428D01*
X110936000Y-74918857D01*
X110907428Y-74890285D01*
X110878857Y-74833142D01*
X110878857Y-74661714D01*
X110907428Y-74604571D01*
X110936000Y-74576000D01*
X110993142Y-74547428D01*
X111107428Y-74547428D01*
X111164571Y-74576000D01*
X111450285Y-74947428D02*
X111450285Y-74547428D01*
X111450285Y-74347428D02*
X111421714Y-74376000D01*
X111450285Y-74404571D01*
X111478857Y-74376000D01*
X111450285Y-74347428D01*
X111450285Y-74404571D01*
X111736000Y-74947428D02*
X111736000Y-74547428D01*
X111736000Y-74661714D02*
X111764571Y-74604571D01*
X111793142Y-74576000D01*
X111850285Y-74547428D01*
X111907428Y-74547428D01*
X112336000Y-74918857D02*
X112278857Y-74947428D01*
X112164571Y-74947428D01*
X112107428Y-74918857D01*
X112078857Y-74861714D01*
X112078857Y-74633142D01*
X112107428Y-74576000D01*
X112164571Y-74547428D01*
X112278857Y-74547428D01*
X112336000Y-74576000D01*
X112364571Y-74633142D01*
X112364571Y-74690285D01*
X112078857Y-74747428D01*
X112621714Y-74947428D02*
X112621714Y-74347428D01*
X112678857Y-74718857D02*
X112850285Y-74947428D01*
X112850285Y-74547428D02*
X112621714Y-74776000D01*
X113021714Y-74547428D02*
X113250285Y-74547428D01*
X113107428Y-74347428D02*
X113107428Y-74861714D01*
X113136000Y-74918857D01*
X113193142Y-74947428D01*
X113250285Y-74947428D01*
G04 #@! TO.C,C2*
X165314333Y-77065142D02*
X165266714Y-77112761D01*
X165123857Y-77160380D01*
X165028619Y-77160380D01*
X164885761Y-77112761D01*
X164790523Y-77017523D01*
X164742904Y-76922285D01*
X164695285Y-76731809D01*
X164695285Y-76588952D01*
X164742904Y-76398476D01*
X164790523Y-76303238D01*
X164885761Y-76208000D01*
X165028619Y-76160380D01*
X165123857Y-76160380D01*
X165266714Y-76208000D01*
X165314333Y-76255619D01*
X165695285Y-76255619D02*
X165742904Y-76208000D01*
X165838142Y-76160380D01*
X166076238Y-76160380D01*
X166171476Y-76208000D01*
X166219095Y-76255619D01*
X166266714Y-76350857D01*
X166266714Y-76446095D01*
X166219095Y-76588952D01*
X165647666Y-77160380D01*
X166266714Y-77160380D01*
G04 #@! TD*
M02*
