M48
;DRILL file {KiCad (5.0.0)} date 11/11/18 20:44:11
;FORMAT={-:-/ absolute / inch / decimal}
FMAT,2
INCH,TZ
T1C0.0236
T2C0.0315
T3C0.0354
T4C0.0394
T5C0.0433
T6C0.0591
T7C0.1772
%
G90
G05
M72
T1
X6.515Y-3.1109
X6.515Y-3.17
X4.9709Y-3.075
X5.03Y-3.075
T2
X4.7781Y-3.9
X4.975Y-3.9
X4.325Y-3.825
X4.525Y-3.825
X6.05Y-4.275
X6.25Y-4.275
X6.05Y-4.1
X6.25Y-4.1
X6.5Y-3.715
X6.5Y-3.915
X3.93Y-3.36
X4.13Y-3.36
X3.925Y-3.825
X4.125Y-3.825
X4.29Y-3.485
X4.29Y-3.585
X4.29Y-3.685
X4.59Y-3.485
X4.59Y-3.585
X4.59Y-3.685
X4.14Y-3.025
X4.14Y-3.225
X4.34Y-3.36
X4.54Y-3.36
X4.725Y-3.45
X4.725Y-3.55
X4.725Y-3.65
X4.725Y-3.75
X5.025Y-3.45
X5.025Y-3.55
X5.025Y-3.65
X5.025Y-3.75
X4.67Y-3.075
X4.8669Y-3.075
X3.88Y-3.485
X3.88Y-3.585
X3.88Y-3.685
X4.18Y-3.485
X4.18Y-3.585
X4.18Y-3.685
X4.54Y-3.025
X4.54Y-3.225
X6.5Y-3.365
X6.5Y-3.565
T3
X5.825Y-4.1
X5.925Y-4.1
X5.825Y-4.275
X5.925Y-4.275
T4
X6.39Y-4.1
X6.39Y-4.2
X6.39Y-4.3
X3.9916Y-4.27
X4.09Y-4.27
X3.915Y-3.0766
X3.915Y-3.175
X4.7781Y-4.2
X4.975Y-4.2
X4.315Y-3.0766
X4.315Y-3.175
X4.3716Y-4.27
X4.47Y-4.27
T5
X5.325Y-3.83
X5.425Y-3.83
X5.525Y-3.83
X5.325Y-3.355
X5.425Y-3.355
X5.525Y-3.355
X5.325Y-4.305
X5.425Y-4.305
X5.525Y-4.305
X4.775Y-3.31
X4.875Y-3.31
X4.975Y-3.31
T6
X5.425Y-3.63
X5.425Y-4.105
X5.425Y-3.155
T7
X5.95Y-3.14
X6.2453Y-3.14
X5.9507Y-3.49
X6.246Y-3.49
X5.9507Y-3.8361
X6.246Y-3.8361
T0
M30
