G04 #@! TF.GenerationSoftware,KiCad,Pcbnew,(5.0.0)*
G04 #@! TF.CreationDate,2018-11-11T20:44:08+01:00*
G04 #@! TF.ProjectId,MosfetSchaltung_v2,4D6F73666574536368616C74756E675F,rev?*
G04 #@! TF.SameCoordinates,Original*
G04 #@! TF.FileFunction,Paste,Bot*
G04 #@! TF.FilePolarity,Positive*
%FSLAX46Y46*%
G04 Gerber Fmt 4.6, Leading zero omitted, Abs format (unit mm)*
G04 Created by KiCad (PCBNEW (5.0.0)) date 11/11/18 20:44:08*
%MOMM*%
%LPD*%
G01*
G04 APERTURE LIST*
%ADD10C,0.100000*%
%ADD11C,0.590000*%
G04 APERTURE END LIST*
D10*
G04 #@! TO.C,R9*
G36*
X102754958Y-82230710D02*
X102769276Y-82232834D01*
X102783317Y-82236351D01*
X102796946Y-82241228D01*
X102810031Y-82247417D01*
X102822447Y-82254858D01*
X102834073Y-82263481D01*
X102844798Y-82273202D01*
X102854519Y-82283927D01*
X102863142Y-82295553D01*
X102870583Y-82307969D01*
X102876772Y-82321054D01*
X102881649Y-82334683D01*
X102885166Y-82348724D01*
X102887290Y-82363042D01*
X102888000Y-82377500D01*
X102888000Y-82722500D01*
X102887290Y-82736958D01*
X102885166Y-82751276D01*
X102881649Y-82765317D01*
X102876772Y-82778946D01*
X102870583Y-82792031D01*
X102863142Y-82804447D01*
X102854519Y-82816073D01*
X102844798Y-82826798D01*
X102834073Y-82836519D01*
X102822447Y-82845142D01*
X102810031Y-82852583D01*
X102796946Y-82858772D01*
X102783317Y-82863649D01*
X102769276Y-82867166D01*
X102754958Y-82869290D01*
X102740500Y-82870000D01*
X102445500Y-82870000D01*
X102431042Y-82869290D01*
X102416724Y-82867166D01*
X102402683Y-82863649D01*
X102389054Y-82858772D01*
X102375969Y-82852583D01*
X102363553Y-82845142D01*
X102351927Y-82836519D01*
X102341202Y-82826798D01*
X102331481Y-82816073D01*
X102322858Y-82804447D01*
X102315417Y-82792031D01*
X102309228Y-82778946D01*
X102304351Y-82765317D01*
X102300834Y-82751276D01*
X102298710Y-82736958D01*
X102298000Y-82722500D01*
X102298000Y-82377500D01*
X102298710Y-82363042D01*
X102300834Y-82348724D01*
X102304351Y-82334683D01*
X102309228Y-82321054D01*
X102315417Y-82307969D01*
X102322858Y-82295553D01*
X102331481Y-82283927D01*
X102341202Y-82273202D01*
X102351927Y-82263481D01*
X102363553Y-82254858D01*
X102375969Y-82247417D01*
X102389054Y-82241228D01*
X102402683Y-82236351D01*
X102416724Y-82232834D01*
X102431042Y-82230710D01*
X102445500Y-82230000D01*
X102740500Y-82230000D01*
X102754958Y-82230710D01*
X102754958Y-82230710D01*
G37*
D11*
X102593000Y-82550000D03*
D10*
G36*
X101784958Y-82230710D02*
X101799276Y-82232834D01*
X101813317Y-82236351D01*
X101826946Y-82241228D01*
X101840031Y-82247417D01*
X101852447Y-82254858D01*
X101864073Y-82263481D01*
X101874798Y-82273202D01*
X101884519Y-82283927D01*
X101893142Y-82295553D01*
X101900583Y-82307969D01*
X101906772Y-82321054D01*
X101911649Y-82334683D01*
X101915166Y-82348724D01*
X101917290Y-82363042D01*
X101918000Y-82377500D01*
X101918000Y-82722500D01*
X101917290Y-82736958D01*
X101915166Y-82751276D01*
X101911649Y-82765317D01*
X101906772Y-82778946D01*
X101900583Y-82792031D01*
X101893142Y-82804447D01*
X101884519Y-82816073D01*
X101874798Y-82826798D01*
X101864073Y-82836519D01*
X101852447Y-82845142D01*
X101840031Y-82852583D01*
X101826946Y-82858772D01*
X101813317Y-82863649D01*
X101799276Y-82867166D01*
X101784958Y-82869290D01*
X101770500Y-82870000D01*
X101475500Y-82870000D01*
X101461042Y-82869290D01*
X101446724Y-82867166D01*
X101432683Y-82863649D01*
X101419054Y-82858772D01*
X101405969Y-82852583D01*
X101393553Y-82845142D01*
X101381927Y-82836519D01*
X101371202Y-82826798D01*
X101361481Y-82816073D01*
X101352858Y-82804447D01*
X101345417Y-82792031D01*
X101339228Y-82778946D01*
X101334351Y-82765317D01*
X101330834Y-82751276D01*
X101328710Y-82736958D01*
X101328000Y-82722500D01*
X101328000Y-82377500D01*
X101328710Y-82363042D01*
X101330834Y-82348724D01*
X101334351Y-82334683D01*
X101339228Y-82321054D01*
X101345417Y-82307969D01*
X101352858Y-82295553D01*
X101361481Y-82283927D01*
X101371202Y-82273202D01*
X101381927Y-82263481D01*
X101393553Y-82254858D01*
X101405969Y-82247417D01*
X101419054Y-82241228D01*
X101432683Y-82236351D01*
X101446724Y-82232834D01*
X101461042Y-82230710D01*
X101475500Y-82230000D01*
X101770500Y-82230000D01*
X101784958Y-82230710D01*
X101784958Y-82230710D01*
G37*
D11*
X101623000Y-82550000D03*
G04 #@! TD*
D10*
G04 #@! TO.C,R10*
G36*
X111944958Y-82230710D02*
X111959276Y-82232834D01*
X111973317Y-82236351D01*
X111986946Y-82241228D01*
X112000031Y-82247417D01*
X112012447Y-82254858D01*
X112024073Y-82263481D01*
X112034798Y-82273202D01*
X112044519Y-82283927D01*
X112053142Y-82295553D01*
X112060583Y-82307969D01*
X112066772Y-82321054D01*
X112071649Y-82334683D01*
X112075166Y-82348724D01*
X112077290Y-82363042D01*
X112078000Y-82377500D01*
X112078000Y-82722500D01*
X112077290Y-82736958D01*
X112075166Y-82751276D01*
X112071649Y-82765317D01*
X112066772Y-82778946D01*
X112060583Y-82792031D01*
X112053142Y-82804447D01*
X112044519Y-82816073D01*
X112034798Y-82826798D01*
X112024073Y-82836519D01*
X112012447Y-82845142D01*
X112000031Y-82852583D01*
X111986946Y-82858772D01*
X111973317Y-82863649D01*
X111959276Y-82867166D01*
X111944958Y-82869290D01*
X111930500Y-82870000D01*
X111635500Y-82870000D01*
X111621042Y-82869290D01*
X111606724Y-82867166D01*
X111592683Y-82863649D01*
X111579054Y-82858772D01*
X111565969Y-82852583D01*
X111553553Y-82845142D01*
X111541927Y-82836519D01*
X111531202Y-82826798D01*
X111521481Y-82816073D01*
X111512858Y-82804447D01*
X111505417Y-82792031D01*
X111499228Y-82778946D01*
X111494351Y-82765317D01*
X111490834Y-82751276D01*
X111488710Y-82736958D01*
X111488000Y-82722500D01*
X111488000Y-82377500D01*
X111488710Y-82363042D01*
X111490834Y-82348724D01*
X111494351Y-82334683D01*
X111499228Y-82321054D01*
X111505417Y-82307969D01*
X111512858Y-82295553D01*
X111521481Y-82283927D01*
X111531202Y-82273202D01*
X111541927Y-82263481D01*
X111553553Y-82254858D01*
X111565969Y-82247417D01*
X111579054Y-82241228D01*
X111592683Y-82236351D01*
X111606724Y-82232834D01*
X111621042Y-82230710D01*
X111635500Y-82230000D01*
X111930500Y-82230000D01*
X111944958Y-82230710D01*
X111944958Y-82230710D01*
G37*
D11*
X111783000Y-82550000D03*
D10*
G36*
X112914958Y-82230710D02*
X112929276Y-82232834D01*
X112943317Y-82236351D01*
X112956946Y-82241228D01*
X112970031Y-82247417D01*
X112982447Y-82254858D01*
X112994073Y-82263481D01*
X113004798Y-82273202D01*
X113014519Y-82283927D01*
X113023142Y-82295553D01*
X113030583Y-82307969D01*
X113036772Y-82321054D01*
X113041649Y-82334683D01*
X113045166Y-82348724D01*
X113047290Y-82363042D01*
X113048000Y-82377500D01*
X113048000Y-82722500D01*
X113047290Y-82736958D01*
X113045166Y-82751276D01*
X113041649Y-82765317D01*
X113036772Y-82778946D01*
X113030583Y-82792031D01*
X113023142Y-82804447D01*
X113014519Y-82816073D01*
X113004798Y-82826798D01*
X112994073Y-82836519D01*
X112982447Y-82845142D01*
X112970031Y-82852583D01*
X112956946Y-82858772D01*
X112943317Y-82863649D01*
X112929276Y-82867166D01*
X112914958Y-82869290D01*
X112900500Y-82870000D01*
X112605500Y-82870000D01*
X112591042Y-82869290D01*
X112576724Y-82867166D01*
X112562683Y-82863649D01*
X112549054Y-82858772D01*
X112535969Y-82852583D01*
X112523553Y-82845142D01*
X112511927Y-82836519D01*
X112501202Y-82826798D01*
X112491481Y-82816073D01*
X112482858Y-82804447D01*
X112475417Y-82792031D01*
X112469228Y-82778946D01*
X112464351Y-82765317D01*
X112460834Y-82751276D01*
X112458710Y-82736958D01*
X112458000Y-82722500D01*
X112458000Y-82377500D01*
X112458710Y-82363042D01*
X112460834Y-82348724D01*
X112464351Y-82334683D01*
X112469228Y-82321054D01*
X112475417Y-82307969D01*
X112482858Y-82295553D01*
X112491481Y-82283927D01*
X112501202Y-82273202D01*
X112511927Y-82263481D01*
X112523553Y-82254858D01*
X112535969Y-82247417D01*
X112549054Y-82241228D01*
X112562683Y-82236351D01*
X112576724Y-82232834D01*
X112591042Y-82230710D01*
X112605500Y-82230000D01*
X112900500Y-82230000D01*
X112914958Y-82230710D01*
X112914958Y-82230710D01*
G37*
D11*
X112753000Y-82550000D03*
G04 #@! TD*
M02*
