G04 #@! TF.GenerationSoftware,KiCad,Pcbnew,(5.0.0)*
G04 #@! TF.CreationDate,2018-11-11T20:44:08+01:00*
G04 #@! TF.ProjectId,MosfetSchaltung_v2,4D6F73666574536368616C74756E675F,rev?*
G04 #@! TF.SameCoordinates,Original*
G04 #@! TF.FileFunction,Soldermask,Top*
G04 #@! TF.FilePolarity,Negative*
%FSLAX46Y46*%
G04 Gerber Fmt 4.6, Leading zero omitted, Abs format (unit mm)*
G04 Created by KiCad (PCBNEW (5.0.0)) date 11/11/18 20:44:08*
%MOMM*%
%LPD*%
G01*
G04 APERTURE LIST*
%ADD10C,3.200000*%
%ADD11O,2.000000X1.700000*%
%ADD12R,2.000000X1.700000*%
%ADD13R,1.000000X0.700000*%
%ADD14R,1.905000X2.000000*%
%ADD15O,1.905000X2.000000*%
%ADD16R,1.700000X1.700000*%
%ADD17O,1.700000X1.700000*%
%ADD18C,1.600000*%
%ADD19C,1.200000*%
%ADD20R,1.200000X1.200000*%
%ADD21R,2.000000X2.000000*%
%ADD22C,2.000000*%
%ADD23C,1.800000*%
%ADD24R,1.800000X1.800000*%
%ADD25C,6.000000*%
%ADD26R,1.700000X2.000000*%
%ADD27O,1.700000X2.000000*%
%ADD28O,1.600000X1.600000*%
%ADD29R,1.600000X1.600000*%
%ADD30R,3.000000X3.000000*%
G04 APERTURE END LIST*
D10*
G04 #@! TO.C,MH1*
X94541006Y-93617747D03*
G04 #@! TD*
D11*
G04 #@! TO.C,J6*
X99441000Y-78145000D03*
D12*
X99441000Y-80645000D03*
G04 #@! TD*
D13*
G04 #@! TO.C,D1*
X105591000Y-103600000D03*
X105591000Y-99600000D03*
X99641000Y-99600000D03*
X99641000Y-103600000D03*
G04 #@! TD*
D14*
G04 #@! TO.C,U4*
X121285000Y-84074000D03*
D15*
X123825000Y-84074000D03*
X126365000Y-84074000D03*
G04 #@! TD*
D16*
G04 #@! TO.C,SW1*
X162306000Y-104140000D03*
D17*
X162306000Y-106680000D03*
X162306000Y-109220000D03*
G04 #@! TD*
D15*
G04 #@! TO.C,Q3*
X140335000Y-109347000D03*
X137795000Y-109347000D03*
D14*
X135255000Y-109347000D03*
G04 #@! TD*
G04 #@! TO.C,Q2*
X135255000Y-97282000D03*
D15*
X137795000Y-97282000D03*
X140335000Y-97282000D03*
G04 #@! TD*
D18*
G04 #@! TO.C,C1*
X121365000Y-99060000D03*
X126365000Y-99060000D03*
G04 #@! TD*
G04 #@! TO.C,C3*
X118618000Y-78105000D03*
X123618000Y-78105000D03*
G04 #@! TD*
D19*
G04 #@! TO.C,C4*
X126262000Y-78105000D03*
D20*
X127762000Y-78105000D03*
G04 #@! TD*
D21*
G04 #@! TO.C,C5*
X126365000Y-106680000D03*
D22*
X121365000Y-106680000D03*
G04 #@! TD*
D23*
G04 #@! TO.C,D2*
X150495000Y-108585000D03*
D24*
X147955000Y-108585000D03*
G04 #@! TD*
G04 #@! TO.C,D4*
X147955000Y-104140000D03*
D23*
X150495000Y-104140000D03*
G04 #@! TD*
D13*
G04 #@! TO.C,D6*
X109801000Y-103600000D03*
X109801000Y-99600000D03*
X115751000Y-99600000D03*
X115751000Y-103600000D03*
G04 #@! TD*
D25*
G04 #@! TO.C,J1*
X151130000Y-79756000D03*
X158630000Y-79756000D03*
G04 #@! TD*
D26*
G04 #@! TO.C,J2*
X103886000Y-108458000D03*
D27*
X101386000Y-108458000D03*
G04 #@! TD*
D25*
G04 #@! TO.C,J3*
X158647442Y-88646000D03*
X151147442Y-88646000D03*
G04 #@! TD*
G04 #@! TO.C,J4*
X151147442Y-97437319D03*
X158647442Y-97437319D03*
G04 #@! TD*
D27*
G04 #@! TO.C,J5*
X111038000Y-108458000D03*
D26*
X113538000Y-108458000D03*
G04 #@! TD*
D15*
G04 #@! TO.C,Q1*
X140335000Y-85217000D03*
X137795000Y-85217000D03*
D14*
X135255000Y-85217000D03*
G04 #@! TD*
D28*
G04 #@! TO.C,U1*
X106172000Y-88519000D03*
X98552000Y-93599000D03*
X106172000Y-91059000D03*
X98552000Y-91059000D03*
X106172000Y-93599000D03*
D29*
X98552000Y-88519000D03*
G04 #@! TD*
G04 #@! TO.C,U2*
X120015000Y-87630000D03*
D28*
X127635000Y-95250000D03*
X120015000Y-90170000D03*
X127635000Y-92710000D03*
X120015000Y-92710000D03*
X127635000Y-90170000D03*
X120015000Y-95250000D03*
X127635000Y-87630000D03*
G04 #@! TD*
D29*
G04 #@! TO.C,U3*
X108966000Y-88519000D03*
D28*
X116586000Y-93599000D03*
X108966000Y-91059000D03*
X116586000Y-91059000D03*
X108966000Y-93599000D03*
X116586000Y-88519000D03*
G04 #@! TD*
D29*
G04 #@! TO.C,D3*
X165100000Y-90551000D03*
D28*
X165100000Y-85471000D03*
G04 #@! TD*
G04 #@! TO.C,D5*
X165100000Y-94361000D03*
D29*
X165100000Y-99441000D03*
G04 #@! TD*
D28*
G04 #@! TO.C,R1*
X105156000Y-76835000D03*
D18*
X105156000Y-81915000D03*
G04 #@! TD*
G04 #@! TO.C,R2*
X104902000Y-85344000D03*
D28*
X99822000Y-85344000D03*
G04 #@! TD*
G04 #@! TO.C,R3*
X99695000Y-97155000D03*
D18*
X104775000Y-97155000D03*
G04 #@! TD*
G04 #@! TO.C,R4*
X153670000Y-108585000D03*
D28*
X158750000Y-108585000D03*
G04 #@! TD*
G04 #@! TO.C,R5*
X158750000Y-104140000D03*
D18*
X153670000Y-104140000D03*
G04 #@! TD*
G04 #@! TO.C,R6*
X115316000Y-81915000D03*
D28*
X115316000Y-76835000D03*
G04 #@! TD*
G04 #@! TO.C,R7*
X110236000Y-85344000D03*
D18*
X115316000Y-85344000D03*
G04 #@! TD*
G04 #@! TO.C,R8*
X114935000Y-97155000D03*
D28*
X109855000Y-97155000D03*
G04 #@! TD*
D12*
G04 #@! TO.C,J7*
X109601000Y-80645000D03*
D11*
X109601000Y-78145000D03*
G04 #@! TD*
D20*
G04 #@! TO.C,C2*
X165481000Y-80518000D03*
D19*
X165481000Y-79018000D03*
G04 #@! TD*
D10*
G04 #@! TO.C,MH2*
X170180000Y-93345000D03*
G04 #@! TD*
D30*
G04 #@! TO.C,TP1*
X137795000Y-80137000D03*
G04 #@! TD*
G04 #@! TO.C,TP2*
X137795000Y-92202000D03*
G04 #@! TD*
G04 #@! TO.C,TP3*
X137795000Y-104267000D03*
G04 #@! TD*
M02*
